<?xml version="1.0" standalone="no"?>
<!DOCTYPE svg PUBLIC "-//W3C//DTD SVG 20010904//EN"
 "http://www.w3.org/TR/2001/REC-SVG-20010904/DTD/svg10.dtd">
<svg version="1.0" xmlns="http://www.w3.org/2000/svg"
 width="347.000000pt" height="333.000000pt" viewBox="0 0 347.000000 333.000000"
 preserveAspectRatio="xMidYMid meet">

<g transform="translate(0.000000,333.000000) scale(0.100000,-0.100000)"
fill="#000000" stroke="none">
<path d="M890 3288 c-25 -13 -55 -38 -67 -57 -22 -33 -23 -42 -23 -258 0 -249
3 -261 65 -309 76 -57 197 -36 247 44 22 35 23 49 26 233 5 259 -10 308 -102
350 -54 25 -92 24 -146 -3z"/>
<path d="M2412 3284 c-18 -10 -45 -33 -60 -52 l-27 -35 -3 -226 c-2 -219 -2
-227 20 -266 48 -84 162 -108 246 -52 69 45 73 66 70 321 -3 246 -4 250 -71
300 -37 27 -130 33 -175 10z"/>
<path d="M308 3001 c-72 -23 -113 -49 -164 -103 -53 -55 -78 -99 -98 -169 -15
-50 -16 -176 -14 -1230 l3 -1174 23 -58 c33 -81 116 -168 200 -209 l67 -33
1410 0 1410 0 55 26 c85 40 154 108 197 197 l38 76 3 221 c4 221 4 222 -20
249 -33 39 -88 40 -126 3 l-27 -27 -5 -219 -5 -219 -30 -43 c-19 -27 -50 -54
-84 -71 l-53 -28 -1352 0 -1351 0 -52 24 c-63 30 -107 86 -122 157 -7 33 -11
339 -11 919 l0 870 1530 0 1530 0 0 -315 0 -314 30 -35 c31 -34 73 -59 123
-71 l27 -7 0 610 c0 370 -4 630 -10 663 -24 125 -111 237 -229 293 -65 30 -69
31 -243 34 l-176 4 -4 -82 c-2 -45 -1 -84 1 -86 2 -2 71 -4 153 -4 166 0 199
-8 257 -63 63 -60 71 -91 71 -284 l0 -173 -1531 0 -1532 0 5 173 c4 153 7 177
28 220 12 26 37 59 54 72 63 48 96 55 251 55 l145 0 0 85 0 85 -157 -1 c-124
0 -170 -4 -215 -18z"/>
<path d="M1250 2935 l0 -85 478 2 477 3 3 83 3 82 -481 0 -480 0 0 -85z"/>
<path d="M658 1543 c-16 -4 -18 -17 -18 -99 l0 -95 -26 20 c-51 40 -134 17
-160 -44 -20 -48 -19 -226 1 -265 32 -61 112 -78 164 -34 30 25 31 25 31 4 0
-18 5 -21 38 -18 l37 3 3 255 c2 231 1 256 -15 268 -17 12 -25 13 -55 5z m-34
-255 c23 -32 22 -165 -1 -190 -23 -26 -69 -23 -85 5 -17 31 -17 169 1 190 20
25 67 21 85 -5z"/>
<path d="M1018 1543 c-16 -4 -18 -17 -18 -100 l0 -96 -21 19 c-15 13 -36 19
-70 19 -40 0 -54 -5 -76 -28 -28 -27 -28 -28 -28 -163 l0 -136 33 -29 c43 -39
102 -40 138 -4 25 25 26 25 31 5 4 -15 14 -20 39 -20 28 0 35 4 40 25 4 14 5
132 2 261 -4 263 -5 264 -70 247z m-34 -255 c22 -31 22 -155 0 -186 -22 -32
-73 -27 -92 8 -17 32 -12 161 7 184 20 24 67 20 85 -6z"/>
<path d="M1478 1374 c-16 -8 -28 -20 -29 -27 0 -7 -4 -2 -9 11 -7 17 -17 22
-45 22 l-35 0 0 -185 0 -185 40 0 40 0 0 114 c0 148 13 185 67 186 35 0 43
-30 43 -170 l0 -131 43 3 42 3 5 138 c5 146 9 157 57 157 35 0 43 -30 43 -170
l0 -131 43 3 42 3 3 115 c4 154 -3 196 -38 232 -39 39 -88 38 -132 -1 l-32
-29 -27 29 c-31 33 -76 38 -121 13z"/>
<path d="M2040 1363 c0 -10 24 -100 54 -200 60 -204 60 -225 -2 -231 -30 -3
-32 -6 -32 -43 0 -38 1 -39 35 -39 50 0 84 19 105 60 15 29 130 439 130 463 0
4 -18 7 -40 7 -44 0 -39 12 -80 -167 -12 -51 -23 -93 -25 -93 -1 0 -15 51 -30
113 -35 143 -38 147 -80 147 -27 0 -35 -4 -35 -17z"/>
<path d="M2360 1364 c0 -18 83 -310 102 -356 15 -39 -11 -78 -52 -78 -28 0
-30 -2 -30 -40 0 -38 2 -40 30 -40 51 0 95 24 113 63 15 32 127 435 127 458 0
5 -18 9 -40 9 -33 0 -40 -4 -45 -22 -29 -127 -55 -231 -58 -235 -3 -2 -19 55
-37 127 l-32 130 -39 0 c-30 0 -39 -4 -39 -16z"/>
<path d="M2686 1371 c-3 -4 19 -95 50 -201 52 -181 54 -194 39 -216 -11 -16
-25 -24 -45 -24 -28 0 -30 -2 -30 -40 0 -39 1 -40 35 -40 47 0 91 24 109 59
16 30 126 430 126 457 0 11 -9 14 -37 12 l-38 -3 -32 -125 c-18 -69 -33 -127
-33 -130 -1 -3 -10 31 -21 75 -44 182 -46 185 -84 185 -18 0 -36 -4 -39 -9z"/>
<path d="M3000 1370 c0 -6 25 -96 56 -201 31 -108 52 -198 49 -209 -4 -11 -18
-23 -33 -26 -49 -11 -52 -13 -52 -49 0 -33 2 -35 35 -35 48 0 91 24 110 60 17
33 125 424 125 453 0 13 -8 17 -35 17 -42 0 -44 -3 -77 -154 -12 -58 -25 -106
-28 -106 -3 0 -13 36 -23 80 -10 45 -25 103 -33 130 -14 49 -16 50 -54 50 -22
0 -40 -5 -40 -10z"/>
<path d="M1172 1098 c-17 -17 -15 -64 4 -82 20 -20 58 -20 78 0 19 18 21 65 4
82 -16 16 -70 16 -86 0z"/>
<path d="M1912 1098 c-7 -7 -12 -27 -12 -45 0 -34 21 -53 58 -53 41 0 69 69
40 98 -16 16 -70 16 -86 0z"/>
</g>
</svg>
