<svg version="1.1" id="Layer_1" xmlns="http://www.w3.org/2000/svg" xmlns:xlink="http://www.w3.org/1999/xlink" x="0px" y="0px"
	 width="100%" viewBox="0 0 288 208" enable-background="new 0 0 288 208" xml:space="preserve">
<path fill="#000000" opacity="1.000000" stroke="none" 
	d="
M289.000000,171.000000 
	C289.000000,183.649490 289.000000,196.298996 289.000000,209.000000 
	C194.312439,209.000000 99.624878,209.000000 4.551315,208.659637 
	C5.449211,204.190598 8.429837,201.761993 12.193998,199.939560 
	C24.635687,193.915878 37.001194,187.734604 49.452724,181.731613 
	C55.665077,178.736588 60.377556,174.221085 63.986542,168.436295 
	C65.069214,166.700882 65.746178,164.910049 65.514267,162.780731 
	C64.813004,156.341949 64.197266,149.893768 63.563251,143.447769 
	C63.157413,139.321686 61.889610,135.992767 57.951195,133.574951 
	C51.411480,129.560196 51.011036,129.247452 49.404385,136.961609 
	C45.720493,154.649429 38.014236,170.617722 29.398117,186.259613 
	C26.256588,191.962814 21.531832,194.211014 16.805199,192.181976 
	C12.293244,190.245087 10.699481,185.752365 13.435743,179.428665 
	C22.551302,158.361954 26.680824,135.931320 32.080276,113.832619 
	C33.030598,109.943192 31.944977,108.342514 28.241722,107.459892 
	C16.359968,104.628021 11.612901,95.146667 17.242720,84.357391 
	C22.474339,74.331253 28.464718,64.691559 34.342102,55.015999 
	C37.118900,50.444729 41.654343,49.154457 46.858013,49.362076 
	C52.444321,49.584953 55.745762,53.574699 59.548565,56.684341 
	C61.657455,58.408829 63.536674,59.275867 66.315430,58.319607 
	C70.831184,56.765568 75.148338,57.637344 79.217430,60.111988 
	C84.054993,63.053989 89.087189,65.694839 93.789688,68.833778 
	C97.278023,71.162247 100.400665,71.560883 104.487778,70.161728 
	C112.331474,67.476555 120.322525,64.787613 128.722534,64.744911 
	C132.771454,64.724319 135.162125,63.148102 137.298233,59.995327 
	C147.106323,45.519165 157.010498,31.107578 166.955231,16.724701 
	C173.762329,6.879725 183.838226,6.918872 190.387619,17.020597 
	C210.684311,48.326107 230.882690,79.695755 251.015610,111.106911 
	C263.772522,131.010086 276.344849,151.031586 289.000000,171.000000 
M219.319504,108.063110 
	C222.287170,109.397224 225.254837,110.731339 228.222504,112.065453 
	C228.469681,111.783379 228.716858,111.501297 228.964050,111.219215 
	C212.390182,85.055099 195.816315,58.890980 178.530777,31.603376 
	C150.769196,71.723022 123.301407,110.305359 98.059898,152.021973 
	C101.750610,150.472992 103.295280,148.698425 104.974632,147.116913 
	C115.637413,137.075409 126.255394,126.986183 136.943420,116.971687 
	C142.738174,111.542107 148.917465,112.331406 153.245773,118.951134 
	C154.884964,121.458160 156.339966,124.092735 158.082352,126.523354 
	C160.149597,129.407166 161.156479,133.137253 164.394043,135.064697 
	C166.690689,134.188248 166.821411,132.136871 167.484634,130.525543 
	C171.282669,121.298073 174.950943,112.017204 178.746597,102.788742 
	C182.030014,94.805649 186.664322,93.033951 194.620331,96.660149 
	C202.644180,100.317276 210.639603,104.036774 219.319504,108.063110 
M108.946045,89.712517 
	C100.088959,93.068848 91.507919,91.446510 83.379570,87.582657 
	C79.008156,85.504669 76.839684,86.387871 74.902237,90.550262 
	C72.873390,94.909019 70.500000,99.136353 67.942757,103.211235 
	C65.820763,106.592560 66.125923,108.684593 69.805122,110.695633 
	C79.244553,115.855194 86.952530,122.343048 85.701515,134.676346 
	C85.692863,134.761566 85.934891,134.872192 86.688972,135.468124 
	C97.102753,119.791496 107.481575,104.167480 118.178596,88.064461 
	C114.670631,87.653328 112.257874,88.941360 108.946045,89.712517 
z"/>
<path fill="#000000" opacity="1.000000" stroke="none" 
	d="
M80.541931,1.000000 
	C89.961342,3.927477 97.071983,8.654819 99.686325,18.531158 
	C102.654411,29.743818 97.045197,42.289021 86.155083,47.847824 
	C76.520737,52.765625 64.831841,50.387043 58.164841,42.152061 
	C50.717236,32.952888 50.832508,19.533447 58.279739,10.355429 
	C61.397575,6.512989 65.474823,4.027799 69.793045,1.262356 
	C73.361290,1.000000 76.722572,1.000000 80.541931,1.000000 
z"/>
</svg>