<svg width="0" height="0" class="hidden">
  <symbol version="1.0" xmlns="http://www.w3.org/2000/svg" preserveAspectRatio="xMidYMid meet" viewBox="0 0 347.000000 333.000000" id="birthDateUch1">
    <g transform="translate(0.000000,333.000000) scale(0.100000,-0.100000)"  stroke="none">
      <path d="M890 3288 c-25 -13 -55 -38 -67 -57 -22 -33 -23 -42 -23 -258 0 -249
3 -261 65 -309 76 -57 197 -36 247 44 22 35 23 49 26 233 5 259 -10 308 -102
350 -54 25 -92 24 -146 -3z"></path>
      <path d="M2412 3284 c-18 -10 -45 -33 -60 -52 l-27 -35 -3 -226 c-2 -219 -2
-227 20 -266 48 -84 162 -108 246 -52 69 45 73 66 70 321 -3 246 -4 250 -71
300 -37 27 -130 33 -175 10z"></path>
      <path d="M308 3001 c-72 -23 -113 -49 -164 -103 -53 -55 -78 -99 -98 -169 -15
-50 -16 -176 -14 -1230 l3 -1174 23 -58 c33 -81 116 -168 200 -209 l67 -33
1410 0 1410 0 55 26 c85 40 154 108 197 197 l38 76 3 221 c4 221 4 222 -20
249 -33 39 -88 40 -126 3 l-27 -27 -5 -219 -5 -219 -30 -43 c-19 -27 -50 -54
-84 -71 l-53 -28 -1352 0 -1351 0 -52 24 c-63 30 -107 86 -122 157 -7 33 -11
339 -11 919 l0 870 1530 0 1530 0 0 -315 0 -314 30 -35 c31 -34 73 -59 123
-71 l27 -7 0 610 c0 370 -4 630 -10 663 -24 125 -111 237 -229 293 -65 30 -69
31 -243 34 l-176 4 -4 -82 c-2 -45 -1 -84 1 -86 2 -2 71 -4 153 -4 166 0 199
-8 257 -63 63 -60 71 -91 71 -284 l0 -173 -1531 0 -1532 0 5 173 c4 153 7 177
28 220 12 26 37 59 54 72 63 48 96 55 251 55 l145 0 0 85 0 85 -157 -1 c-124
0 -170 -4 -215 -18z"></path>
      <path d="M1250 2935 l0 -85 478 2 477 3 3 83 3 82 -481 0 -480 0 0 -85z"></path>
      <path d="M658 1543 c-16 -4 -18 -17 -18 -99 l0 -95 -26 20 c-51 40 -134 17
-160 -44 -20 -48 -19 -226 1 -265 32 -61 112 -78 164 -34 30 25 31 25 31 4 0
-18 5 -21 38 -18 l37 3 3 255 c2 231 1 256 -15 268 -17 12 -25 13 -55 5z m-34
-255 c23 -32 22 -165 -1 -190 -23 -26 -69 -23 -85 5 -17 31 -17 169 1 190 20
25 67 21 85 -5z"></path>
      <path d="M1018 1543 c-16 -4 -18 -17 -18 -100 l0 -96 -21 19 c-15 13 -36 19
-70 19 -40 0 -54 -5 -76 -28 -28 -27 -28 -28 -28 -163 l0 -136 33 -29 c43 -39
102 -40 138 -4 25 25 26 25 31 5 4 -15 14 -20 39 -20 28 0 35 4 40 25 4 14 5
132 2 261 -4 263 -5 264 -70 247z m-34 -255 c22 -31 22 -155 0 -186 -22 -32
-73 -27 -92 8 -17 32 -12 161 7 184 20 24 67 20 85 -6z"></path>
      <path d="M1478 1374 c-16 -8 -28 -20 -29 -27 0 -7 -4 -2 -9 11 -7 17 -17 22
-45 22 l-35 0 0 -185 0 -185 40 0 40 0 0 114 c0 148 13 185 67 186 35 0 43
-30 43 -170 l0 -131 43 3 42 3 5 138 c5 146 9 157 57 157 35 0 43 -30 43 -170
l0 -131 43 3 42 3 3 115 c4 154 -3 196 -38 232 -39 39 -88 38 -132 -1 l-32
-29 -27 29 c-31 33 -76 38 -121 13z"></path>
      <path d="M2040 1363 c0 -10 24 -100 54 -200 60 -204 60 -225 -2 -231 -30 -3
-32 -6 -32 -43 0 -38 1 -39 35 -39 50 0 84 19 105 60 15 29 130 439 130 463 0
4 -18 7 -40 7 -44 0 -39 12 -80 -167 -12 -51 -23 -93 -25 -93 -1 0 -15 51 -30
113 -35 143 -38 147 -80 147 -27 0 -35 -4 -35 -17z"></path>
      <path d="M2360 1364 c0 -18 83 -310 102 -356 15 -39 -11 -78 -52 -78 -28 0
-30 -2 -30 -40 0 -38 2 -40 30 -40 51 0 95 24 113 63 15 32 127 435 127 458 0
5 -18 9 -40 9 -33 0 -40 -4 -45 -22 -29 -127 -55 -231 -58 -235 -3 -2 -19 55
-37 127 l-32 130 -39 0 c-30 0 -39 -4 -39 -16z"></path>
      <path d="M2686 1371 c-3 -4 19 -95 50 -201 52 -181 54 -194 39 -216 -11 -16
-25 -24 -45 -24 -28 0 -30 -2 -30 -40 0 -39 1 -40 35 -40 47 0 91 24 109 59
16 30 126 430 126 457 0 11 -9 14 -37 12 l-38 -3 -32 -125 c-18 -69 -33 -127
-33 -130 -1 -3 -10 31 -21 75 -44 182 -46 185 -84 185 -18 0 -36 -4 -39 -9z"></path>
      <path d="M3000 1370 c0 -6 25 -96 56 -201 31 -108 52 -198 49 -209 -4 -11 -18
-23 -33 -26 -49 -11 -52 -13 -52 -49 0 -33 2 -35 35 -35 48 0 91 24 110 60 17
33 125 424 125 453 0 13 -8 17 -35 17 -42 0 -44 -3 -77 -154 -12 -58 -25 -106
-28 -106 -3 0 -13 36 -23 80 -10 45 -25 103 -33 130 -14 49 -16 50 -54 50 -22
0 -40 -5 -40 -10z"></path>
      <path d="M1172 1098 c-17 -17 -15 -64 4 -82 20 -20 58 -20 78 0 19 18 21 65 4
82 -16 16 -70 16 -86 0z"></path>
      <path d="M1912 1098 c-7 -7 -12 -27 -12 -45 0 -34 21 -53 58 -53 41 0 69 69
40 98 -16 16 -70 16 -86 0z"></path>
    </g>
  </symbol>
  <symbol version="1.1" id="distanceClass" xmlns="http://www.w3.org/2000/svg" xmlns:xlink="http://www.w3.org/1999/xlink" x="0px" y="0px" enable-background="new 0 0 288 208" xml:space="preserve" viewBox="0 0 288 208">
    <path  opacity="1.000000" stroke="none" d="
M289.000000,171.000000 
	C289.000000,183.649490 289.000000,196.298996 289.000000,209.000000 
	C194.312439,209.000000 99.624878,209.000000 4.551315,208.659637 
	C5.449211,204.190598 8.429837,201.761993 12.193998,199.939560 
	C24.635687,193.915878 37.001194,187.734604 49.452724,181.731613 
	C55.665077,178.736588 60.377556,174.221085 63.986542,168.436295 
	C65.069214,166.700882 65.746178,164.910049 65.514267,162.780731 
	C64.813004,156.341949 64.197266,149.893768 63.563251,143.447769 
	C63.157413,139.321686 61.889610,135.992767 57.951195,133.574951 
	C51.411480,129.560196 51.011036,129.247452 49.404385,136.961609 
	C45.720493,154.649429 38.014236,170.617722 29.398117,186.259613 
	C26.256588,191.962814 21.531832,194.211014 16.805199,192.181976 
	C12.293244,190.245087 10.699481,185.752365 13.435743,179.428665 
	C22.551302,158.361954 26.680824,135.931320 32.080276,113.832619 
	C33.030598,109.943192 31.944977,108.342514 28.241722,107.459892 
	C16.359968,104.628021 11.612901,95.146667 17.242720,84.357391 
	C22.474339,74.331253 28.464718,64.691559 34.342102,55.015999 
	C37.118900,50.444729 41.654343,49.154457 46.858013,49.362076 
	C52.444321,49.584953 55.745762,53.574699 59.548565,56.684341 
	C61.657455,58.408829 63.536674,59.275867 66.315430,58.319607 
	C70.831184,56.765568 75.148338,57.637344 79.217430,60.111988 
	C84.054993,63.053989 89.087189,65.694839 93.789688,68.833778 
	C97.278023,71.162247 100.400665,71.560883 104.487778,70.161728 
	C112.331474,67.476555 120.322525,64.787613 128.722534,64.744911 
	C132.771454,64.724319 135.162125,63.148102 137.298233,59.995327 
	C147.106323,45.519165 157.010498,31.107578 166.955231,16.724701 
	C173.762329,6.879725 183.838226,6.918872 190.387619,17.020597 
	C210.684311,48.326107 230.882690,79.695755 251.015610,111.106911 
	C263.772522,131.010086 276.344849,151.031586 289.000000,171.000000 
M219.319504,108.063110 
	C222.287170,109.397224 225.254837,110.731339 228.222504,112.065453 
	C228.469681,111.783379 228.716858,111.501297 228.964050,111.219215 
	C212.390182,85.055099 195.816315,58.890980 178.530777,31.603376 
	C150.769196,71.723022 123.301407,110.305359 98.059898,152.021973 
	C101.750610,150.472992 103.295280,148.698425 104.974632,147.116913 
	C115.637413,137.075409 126.255394,126.986183 136.943420,116.971687 
	C142.738174,111.542107 148.917465,112.331406 153.245773,118.951134 
	C154.884964,121.458160 156.339966,124.092735 158.082352,126.523354 
	C160.149597,129.407166 161.156479,133.137253 164.394043,135.064697 
	C166.690689,134.188248 166.821411,132.136871 167.484634,130.525543 
	C171.282669,121.298073 174.950943,112.017204 178.746597,102.788742 
	C182.030014,94.805649 186.664322,93.033951 194.620331,96.660149 
	C202.644180,100.317276 210.639603,104.036774 219.319504,108.063110 
M108.946045,89.712517 
	C100.088959,93.068848 91.507919,91.446510 83.379570,87.582657 
	C79.008156,85.504669 76.839684,86.387871 74.902237,90.550262 
	C72.873390,94.909019 70.500000,99.136353 67.942757,103.211235 
	C65.820763,106.592560 66.125923,108.684593 69.805122,110.695633 
	C79.244553,115.855194 86.952530,122.343048 85.701515,134.676346 
	C85.692863,134.761566 85.934891,134.872192 86.688972,135.468124 
	C97.102753,119.791496 107.481575,104.167480 118.178596,88.064461 
	C114.670631,87.653328 112.257874,88.941360 108.946045,89.712517 
z"></path>
    <path  opacity="1.000000" stroke="none" d="
M80.541931,1.000000 
	C89.961342,3.927477 97.071983,8.654819 99.686325,18.531158 
	C102.654411,29.743818 97.045197,42.289021 86.155083,47.847824 
	C76.520737,52.765625 64.831841,50.387043 58.164841,42.152061 
	C50.717236,32.952888 50.832508,19.533447 58.279739,10.355429 
	C61.397575,6.512989 65.474823,4.027799 69.793045,1.262356 
	C73.361290,1.000000 76.722572,1.000000 80.541931,1.000000 
z"></path>
  </symbol>
  <symbol version="1.1" id="nameUch1" xmlns="http://www.w3.org/2000/svg" xmlns:xlink="http://www.w3.org/1999/xlink" x="0px" y="0px" enable-background="new 0 0 256 320" xml:space="preserve" viewBox="0 0 256 320">
    <path  opacity="1.000000" stroke="none" d="
M0.999998,255.468658 
	C4.110104,250.502670 7.006607,245.838486 10.367104,241.536774 
	C25.316408,222.400253 45.163570,212.202881 69.134407,209.383987 
	C73.013741,208.927795 74.982300,210.657745 77.073387,213.200943 
	C87.936661,226.412903 101.493149,235.378494 118.562134,238.005585 
	C144.079727,241.933029 166.249588,234.847015 183.481918,215.446625 
	C188.386383,209.925125 193.001633,208.636337 199.492371,209.994629 
	C223.154404,214.946243 242.400635,226.731415 256.752716,246.779755 
	C257.000000,271.632904 257.000000,296.265808 257.000000,321.000000 
	C175.312469,321.000000 93.624893,321.000000 11.260915,320.735657 
	C7.389674,318.647583 4.194834,316.823792 0.999997,315.000000 
	C1.000000,295.312439 1.000000,275.624878 0.999998,255.468658 
M196.581696,318.836151 
	C202.534622,318.194061 209.011353,320.649536 214.728699,316.222717 
	C213.202652,313.796478 211.447067,311.995880 210.859344,309.872101 
	C209.483139,304.898956 205.740341,304.466522 201.640274,304.053986 
	C193.641159,303.249023 188.387146,307.997894 183.357941,313.035858 
	C181.450928,314.946167 182.421524,316.673920 184.799667,317.576263 
	C188.297379,318.903351 191.975311,318.722687 196.581696,318.836151 
z"></path>
    <path  opacity="1.000000" stroke="none" d="
M159.650330,10.325689 
	C158.574081,20.617504 157.447968,30.509418 156.370239,40.406601 
	C156.245026,41.556473 156.340302,42.738651 156.416794,43.900356 
	C156.550400,45.928638 157.643707,47.477539 159.488983,48.073551 
	C161.730011,48.797386 162.828125,46.932079 163.665024,45.354858 
	C164.512253,43.758217 165.011154,41.965229 165.567459,40.227772 
	C167.746826,33.421116 169.943497,26.619110 172.021942,19.781391 
	C173.117126,16.178419 174.924484,15.272858 178.215485,17.437836 
	C197.525848,30.141142 210.988739,47.293217 215.959503,69.993568 
	C217.615631,77.556679 221.418320,81.274124 227.958115,83.526840 
	C231.450363,84.729797 234.226959,86.352364 234.395782,90.719780 
	C234.675156,97.947311 233.465515,99.684891 226.301498,101.417053 
	C214.460052,104.280182 202.335297,105.119751 190.275055,106.224838 
	C161.558105,108.856178 132.734589,109.054436 103.957024,108.157715 
	C81.235786,107.449715 58.450218,106.493866 36.085991,101.544250 
	C31.282827,100.481216 28.148932,98.399506 27.918207,93.118576 
	C27.697660,88.070602 29.953047,84.811546 34.796806,83.495529 
	C42.252037,81.469978 45.238289,76.612442 46.919807,69.025764 
	C51.932926,46.407600 65.679749,29.736618 85.026337,17.439709 
	C88.274117,15.375383 89.676819,16.488522 90.495987,20.017275 
	C91.960144,26.324459 93.746445,32.558624 95.480858,38.800312 
	C96.057999,40.877254 96.747101,42.948780 97.644691,44.903545 
	C98.493523,46.752144 99.844513,48.604164 102.124878,48.226734 
	C104.607735,47.815792 105.482391,45.622047 105.577980,43.331795 
	C105.891891,35.810242 103.763969,28.525314 103.292305,21.069853 
	C103.104462,18.100647 102.626869,15.130554 102.031601,12.211765 
	C101.440903,9.315421 102.695602,7.782360 105.254059,6.939717 
	C122.209000,1.355491 139.187042,1.146194 156.186829,6.735379 
	C157.815277,7.270777 159.319855,7.953296 159.650330,10.325689 
z"></path>
    <path  opacity="1.000000" stroke="none" d="
M64.979095,131.262360 
	C67.876122,158.054245 78.529869,179.813202 102.728371,192.672379 
	C130.941071,207.664734 165.523102,198.311905 183.510651,171.910156 
	C193.606339,157.091888 198.071884,140.667847 198.506714,123.057137 
	C198.618591,118.526382 199.703201,116.316383 204.325180,116.011955 
	C217.996552,115.111473 216.845428,113.143417 218.047043,127.419830 
	C218.761398,135.907089 216.889771,144.375977 213.163193,152.136871 
	C209.136902,160.521881 205.108093,168.963242 200.288803,176.899307 
	C184.781418,202.435806 161.836517,216.761078 132.009445,216.938431 
	C99.384972,217.132431 75.048943,201.399994 59.992905,172.486588 
	C54.816505,162.545868 48.285599,153.056870 46.179516,141.655533 
	C44.782543,134.092957 43.828636,126.572609 45.546074,118.911804 
	C46.184990,116.061874 47.516174,115.113586 50.441837,115.442566 
	C54.863506,115.939766 60.355976,114.666885 63.316956,117.793983 
	C66.296387,120.940605 63.495136,126.486916 64.979095,131.262360 
z"></path>
  </symbol>
  <symbol version="1.0" xmlns="http://www.w3.org/2000/svg" preserveAspectRatio="xMidYMid meet" viewBox="0 0 397.000000 304.000000" id="rozryadUch1">
    <g transform="translate(0.000000,304.000000) scale(0.100000,-0.100000)"  stroke="none">
      <path d="M1978 3004 c-18 -9 -31 -28 -38 -53 -7 -25 -10 -192 -10 -453 l1
-413 -473 -3 c-468 -2 -472 -2 -495 -24 l-23 -21 0 -369 0 -368 -429 0 -429 0
-31 -26 -31 -26 0 -585 0 -585 29 -29 29 -29 1897 0 1897 0 29 29 29 29 0 785
0 784 -26 27 -27 26 -483 0 -484 0 -2 636 -3 636 -28 24 -28 24 -422 0 c-352
-1 -426 -3 -449 -16z m762 -1484 l0 -1340 -820 0 -820 0 0 870 0 870 475 0
476 0 24 25 25 24 0 446 0 445 320 0 320 0 0 -1340z m1028 -657 l-3 -678 -427
-3 -428 -2 0 680 0 680 430 0 430 0 -2 -677z m-2833 -203 l0 -475 -372 -3
-373 -2 0 480 0 480 373 -2 372 -3 0 -475z"></path>
      <path d="M1894 1556 c-33 -19 -100 -62 -149 -97 -127 -91 -152 -143 -96 -200
43 -42 75 -38 159 21 39 28 74 50 77 50 3 0 5 -144 5 -320 l0 -320 -114 0
c-112 0 -115 -1 -135 -26 -38 -48 -24 -111 29 -139 43 -22 567 -22 610 0 56
29 68 98 25 140 -22 23 -31 25 -125 25 l-100 0 0 428 0 429 -23 21 c-35 33
-89 29 -163 -12z"></path>
    </g>
  </symbol>
  <symbol version="1.0" xmlns="http://www.w3.org/2000/svg" preserveAspectRatio="xMidYMid meet" viewBox="0 0 304.000000 327.000000" id="teamName">
    <g transform="translate(0.000000,327.000000) scale(0.100000,-0.100000)"  stroke="none">
      <path d="M211 3239 c-75 -22 -147 -86 -182 -164 -18 -38 -19 -106 -19 -1425 0
-1371 1 -1385 21 -1430 25 -55 80 -114 134 -143 40 -22 41 -22 832 -25 727 -2
792 -1 808 14 32 32 -7 102 -72 130 -26 11 -164 14 -746 14 l-714 0 -34 23
c-19 12 -42 38 -51 57 -17 33 -18 118 -18 1358 0 1419 -2 1361 50 1407 22 20
38 20 886 23 l864 2 0 -224 c0 -237 4 -260 51 -320 12 -16 45 -39 73 -52 49
-23 61 -24 274 -24 l222 0 0 -426 c0 -444 1 -450 44 -485 30 -25 97 -41 113
-27 10 8 13 118 13 531 l0 521 -322 324 c-179 180 -337 330 -355 338 -27 12
-184 14 -935 13 -549 0 -916 -5 -937 -10z m2249 -609 c0 -8 -261 -4 -286 4
-35 11 -44 49 -44 194 l0 137 165 -165 c91 -91 165 -167 165 -170z"></path>
      <path d="M604 2621 c-36 -6 -54 -32 -54 -77 0 -34 5 -47 26 -63 26 -21 36 -21
531 -21 l505 0 30 30 c25 26 29 36 24 63 -14 71 14 67 -542 70 -275 1 -509 0
-520 -2z"></path>
      <path d="M574 2107 c-20 -17 -27 -33 -27 -57 0 -24 7 -40 27 -57 l27 -23 785
0 786 0 29 29 c31 32 35 50 17 84 -25 48 2 46 -830 47 l-787 0 -27 -23z"></path>
      <path d="M590 1627 c-38 -19 -55 -61 -40 -98 7 -16 21 -34 31 -39 10 -6 208
-10 493 -10 l475 0 20 26 c28 35 26 67 -3 101 l-24 28 -464 3 c-361 1 -469 -1
-488 -11z"></path>
      <path d="M2190 1530 c-202 -32 -379 -147 -491 -318 -198 -303 -137 -707 142
-939 63 -51 210 -125 289 -144 79 -20 270 -17 350 5 379 102 605 491 505 871
-65 245 -267 446 -512 509 -76 20 -212 27 -283 16z m251 -176 c186 -56 327
-197 383 -383 20 -70 21 -218 1 -296 -47 -180 -193 -326 -380 -381 -83 -24
-220 -21 -305 5 -283 89 -443 370 -375 660 43 181 187 331 375 392 72 24 226
25 301 3z"></path>
      <path d="M2438 938 c-72 -68 -154 -144 -182 -170 l-51 -46 -81 79 c-67 65 -87
79 -113 79 -40 0 -81 -41 -81 -81 0 -32 49 -97 136 -180 77 -74 102 -89 142
-89 28 0 50 16 154 113 273 252 318 299 318 335 0 43 -38 82 -80 82 -26 0 -53
-21 -162 -122z"></path>
    </g>
  </symbol>
</svg>