<svg version="1.1" id="Layer_1" xmlns="http://www.w3.org/2000/svg" xmlns:xlink="http://www.w3.org/1999/xlink" x="0px" y="0px"
	 width="100%" viewBox="0 0 256 320" enable-background="new 0 0 256 320" xml:space="preserve">
<path fill="#000000" opacity="1.000000" stroke="none" 
	d="
M0.999998,255.468658 
	C4.110104,250.502670 7.006607,245.838486 10.367104,241.536774 
	C25.316408,222.400253 45.163570,212.202881 69.134407,209.383987 
	C73.013741,208.927795 74.982300,210.657745 77.073387,213.200943 
	C87.936661,226.412903 101.493149,235.378494 118.562134,238.005585 
	C144.079727,241.933029 166.249588,234.847015 183.481918,215.446625 
	C188.386383,209.925125 193.001633,208.636337 199.492371,209.994629 
	C223.154404,214.946243 242.400635,226.731415 256.752716,246.779755 
	C257.000000,271.632904 257.000000,296.265808 257.000000,321.000000 
	C175.312469,321.000000 93.624893,321.000000 11.260915,320.735657 
	C7.389674,318.647583 4.194834,316.823792 0.999997,315.000000 
	C1.000000,295.312439 1.000000,275.624878 0.999998,255.468658 
M196.581696,318.836151 
	C202.534622,318.194061 209.011353,320.649536 214.728699,316.222717 
	C213.202652,313.796478 211.447067,311.995880 210.859344,309.872101 
	C209.483139,304.898956 205.740341,304.466522 201.640274,304.053986 
	C193.641159,303.249023 188.387146,307.997894 183.357941,313.035858 
	C181.450928,314.946167 182.421524,316.673920 184.799667,317.576263 
	C188.297379,318.903351 191.975311,318.722687 196.581696,318.836151 
z"/>
<path fill="#000000" opacity="1.000000" stroke="none" 
	d="
M159.650330,10.325689 
	C158.574081,20.617504 157.447968,30.509418 156.370239,40.406601 
	C156.245026,41.556473 156.340302,42.738651 156.416794,43.900356 
	C156.550400,45.928638 157.643707,47.477539 159.488983,48.073551 
	C161.730011,48.797386 162.828125,46.932079 163.665024,45.354858 
	C164.512253,43.758217 165.011154,41.965229 165.567459,40.227772 
	C167.746826,33.421116 169.943497,26.619110 172.021942,19.781391 
	C173.117126,16.178419 174.924484,15.272858 178.215485,17.437836 
	C197.525848,30.141142 210.988739,47.293217 215.959503,69.993568 
	C217.615631,77.556679 221.418320,81.274124 227.958115,83.526840 
	C231.450363,84.729797 234.226959,86.352364 234.395782,90.719780 
	C234.675156,97.947311 233.465515,99.684891 226.301498,101.417053 
	C214.460052,104.280182 202.335297,105.119751 190.275055,106.224838 
	C161.558105,108.856178 132.734589,109.054436 103.957024,108.157715 
	C81.235786,107.449715 58.450218,106.493866 36.085991,101.544250 
	C31.282827,100.481216 28.148932,98.399506 27.918207,93.118576 
	C27.697660,88.070602 29.953047,84.811546 34.796806,83.495529 
	C42.252037,81.469978 45.238289,76.612442 46.919807,69.025764 
	C51.932926,46.407600 65.679749,29.736618 85.026337,17.439709 
	C88.274117,15.375383 89.676819,16.488522 90.495987,20.017275 
	C91.960144,26.324459 93.746445,32.558624 95.480858,38.800312 
	C96.057999,40.877254 96.747101,42.948780 97.644691,44.903545 
	C98.493523,46.752144 99.844513,48.604164 102.124878,48.226734 
	C104.607735,47.815792 105.482391,45.622047 105.577980,43.331795 
	C105.891891,35.810242 103.763969,28.525314 103.292305,21.069853 
	C103.104462,18.100647 102.626869,15.130554 102.031601,12.211765 
	C101.440903,9.315421 102.695602,7.782360 105.254059,6.939717 
	C122.209000,1.355491 139.187042,1.146194 156.186829,6.735379 
	C157.815277,7.270777 159.319855,7.953296 159.650330,10.325689 
z"/>
<path fill="#000000" opacity="1.000000" stroke="none" 
	d="
M64.979095,131.262360 
	C67.876122,158.054245 78.529869,179.813202 102.728371,192.672379 
	C130.941071,207.664734 165.523102,198.311905 183.510651,171.910156 
	C193.606339,157.091888 198.071884,140.667847 198.506714,123.057137 
	C198.618591,118.526382 199.703201,116.316383 204.325180,116.011955 
	C217.996552,115.111473 216.845428,113.143417 218.047043,127.419830 
	C218.761398,135.907089 216.889771,144.375977 213.163193,152.136871 
	C209.136902,160.521881 205.108093,168.963242 200.288803,176.899307 
	C184.781418,202.435806 161.836517,216.761078 132.009445,216.938431 
	C99.384972,217.132431 75.048943,201.399994 59.992905,172.486588 
	C54.816505,162.545868 48.285599,153.056870 46.179516,141.655533 
	C44.782543,134.092957 43.828636,126.572609 45.546074,118.911804 
	C46.184990,116.061874 47.516174,115.113586 50.441837,115.442566 
	C54.863506,115.939766 60.355976,114.666885 63.316956,117.793983 
	C66.296387,120.940605 63.495136,126.486916 64.979095,131.262360 
z"/>
</svg>