<?xml version="1.0" standalone="no"?>
<!DOCTYPE svg PUBLIC "-//W3C//DTD SVG 20010904//EN"
 "http://www.w3.org/TR/2001/REC-SVG-20010904/DTD/svg10.dtd">
<svg version="1.0" xmlns="http://www.w3.org/2000/svg"
 width="397.000000pt" height="304.000000pt" viewBox="0 0 397.000000 304.000000"
 preserveAspectRatio="xMidYMid meet">

<g transform="translate(0.000000,304.000000) scale(0.100000,-0.100000)"
fill="#000000" stroke="none">
<path d="M1978 3004 c-18 -9 -31 -28 -38 -53 -7 -25 -10 -192 -10 -453 l1
-413 -473 -3 c-468 -2 -472 -2 -495 -24 l-23 -21 0 -369 0 -368 -429 0 -429 0
-31 -26 -31 -26 0 -585 0 -585 29 -29 29 -29 1897 0 1897 0 29 29 29 29 0 785
0 784 -26 27 -27 26 -483 0 -484 0 -2 636 -3 636 -28 24 -28 24 -422 0 c-352
-1 -426 -3 -449 -16z m762 -1484 l0 -1340 -820 0 -820 0 0 870 0 870 475 0
476 0 24 25 25 24 0 446 0 445 320 0 320 0 0 -1340z m1028 -657 l-3 -678 -427
-3 -428 -2 0 680 0 680 430 0 430 0 -2 -677z m-2833 -203 l0 -475 -372 -3
-373 -2 0 480 0 480 373 -2 372 -3 0 -475z"/>
<path d="M1894 1556 c-33 -19 -100 -62 -149 -97 -127 -91 -152 -143 -96 -200
43 -42 75 -38 159 21 39 28 74 50 77 50 3 0 5 -144 5 -320 l0 -320 -114 0
c-112 0 -115 -1 -135 -26 -38 -48 -24 -111 29 -139 43 -22 567 -22 610 0 56
29 68 98 25 140 -22 23 -31 25 -125 25 l-100 0 0 428 0 429 -23 21 c-35 33
-89 29 -163 -12z"/>
</g>
</svg>
