<svg aria-hidden="true" style="position: absolute; width: 0; height: 0; overflow: hidden;" version="1.1" xmlns="http://www.w3.org/2000/svg" xmlns:xlink="http://www.w3.org/1999/xlink">
<defs>
<symbol id="icon-birthDateUch" viewBox="0 0 33 32">
<path d="M8.553 0.404c-0.24 0.125-0.529 0.365-0.644 0.548-0.211 0.317-0.221 0.404-0.221 2.479 0 2.393 0.029 2.508 0.625 2.969 0.73 0.548 1.893 0.346 2.374-0.423 0.211-0.336 0.221-0.471 0.25-2.239 0.048-2.489-0.096-2.96-0.98-3.363-0.519-0.24-0.884-0.231-1.403 0.029z"></path>
<path d="M23.178 0.442c-0.173 0.096-0.432 0.317-0.577 0.5l-0.259 0.336-0.029 2.172c-0.019 2.104-0.019 2.181 0.192 2.556 0.461 0.807 1.557 1.038 2.364 0.5 0.663-0.432 0.701-0.634 0.673-3.085-0.029-2.364-0.038-2.402-0.682-2.883-0.356-0.259-1.249-0.317-1.682-0.096z"></path>
<path d="M2.96 3.162c-0.692 0.221-1.086 0.471-1.576 0.99-0.509 0.529-0.75 0.951-0.942 1.624-0.144 0.48-0.154 1.691-0.135 11.82l0.029 11.282 0.221 0.557c0.317 0.778 1.115 1.614 1.922 2.008l0.644 0.317h27.099l0.529-0.25c0.817-0.384 1.48-1.038 1.893-1.893l0.365-0.73 0.029-2.124c0.038-2.124 0.038-2.133-0.192-2.393-0.317-0.375-0.846-0.384-1.211-0.029l-0.259 0.259-0.096 4.209-0.288 0.413c-0.183 0.259-0.48 0.519-0.807 0.682l-0.509 0.269h-25.975l-0.5-0.231c-0.605-0.288-1.028-0.826-1.172-1.509-0.067-0.317-0.106-3.258-0.106-8.831v-8.36h29.405v6.044l0.288 0.336c0.298 0.327 0.702 0.567 1.182 0.682l0.259 0.067v-5.862c0-3.556-0.038-6.054-0.096-6.371-0.231-1.201-1.067-2.277-2.201-2.816-0.625-0.288-0.663-0.298-2.335-0.327l-1.691-0.038-0.038 0.788c-0.019 0.432-0.010 0.807 0.010 0.826s0.682 0.038 1.47 0.038c1.595 0 1.912 0.077 2.47 0.605 0.605 0.577 0.682 0.874 0.682 2.729v1.662h-29.434l0.048-1.662c0.038-1.47 0.067-1.701 0.269-2.114 0.115-0.25 0.356-0.567 0.519-0.692 0.605-0.461 0.923-0.529 2.412-0.529h1.393v-1.634l-1.509 0.010c-1.192 0-1.634 0.038-2.066 0.173z"></path>
<path d="M12.012 3.796v0.817l4.593-0.019 4.584-0.029 0.029-0.798 0.029-0.788h-9.235v0.817z"></path>
<path d="M6.323 17.172c-0.154 0.038-0.173 0.163-0.173 0.951v0.913l-0.25-0.192c-0.49-0.384-1.288-0.163-1.538 0.423-0.192 0.461-0.183 2.172 0.010 2.547 0.308 0.586 1.076 0.75 1.576 0.327 0.288-0.24 0.298-0.24 0.298-0.038 0 0.173 0.048 0.202 0.365 0.173l0.356-0.029 0.029-2.45c0.019-2.22 0.010-2.46-0.144-2.575-0.163-0.115-0.24-0.125-0.529-0.048zM5.996 19.623c0.221 0.308 0.211 1.586-0.010 1.826-0.221 0.25-0.663 0.221-0.817-0.048-0.163-0.298-0.163-1.624 0.010-1.826 0.192-0.24 0.644-0.202 0.817 0.048z"></path>
<path d="M9.783 17.172c-0.154 0.038-0.173 0.163-0.173 0.961v0.923l-0.202-0.183c-0.144-0.125-0.346-0.183-0.673-0.183-0.384 0-0.519 0.048-0.73 0.269-0.269 0.259-0.269 0.269-0.269 1.566v1.307l0.317 0.279c0.413 0.375 0.98 0.384 1.326 0.038 0.24-0.24 0.25-0.24 0.298-0.048 0.038 0.144 0.135 0.192 0.375 0.192 0.269 0 0.336-0.038 0.384-0.24 0.038-0.135 0.048-1.268 0.019-2.508-0.038-2.527-0.048-2.537-0.673-2.374zM9.456 19.623c0.211 0.298 0.211 1.489 0 1.787-0.211 0.308-0.701 0.259-0.884-0.077-0.163-0.308-0.115-1.547 0.067-1.768 0.192-0.231 0.644-0.192 0.817 0.058z"></path>
<path d="M14.203 18.796c-0.154 0.077-0.269 0.192-0.279 0.259 0 0.067-0.038 0.019-0.086-0.106-0.067-0.163-0.163-0.211-0.432-0.211h-0.336v3.556h0.769v-1.096c0-1.422 0.125-1.778 0.644-1.787 0.336 0 0.413 0.288 0.413 1.634v1.259l0.817-0.058 0.048-1.326c0.048-1.403 0.086-1.509 0.548-1.509 0.336 0 0.413 0.288 0.413 1.634v1.259l0.817-0.058 0.029-1.105c0.038-1.48-0.029-1.883-0.365-2.229-0.375-0.375-0.846-0.365-1.268 0.010l-0.307 0.279-0.259-0.279c-0.298-0.317-0.73-0.365-1.163-0.125z"></path>
<path d="M19.604 18.902c0 0.096 0.231 0.961 0.519 1.922 0.577 1.96 0.577 2.162-0.019 2.22-0.288 0.029-0.308 0.058-0.308 0.413 0 0.365 0.010 0.375 0.336 0.375 0.48 0 0.807-0.183 1.009-0.577 0.144-0.279 1.249-4.219 1.249-4.449 0-0.038-0.173-0.067-0.384-0.067-0.423 0-0.375-0.115-0.769 1.605-0.115 0.49-0.221 0.894-0.24 0.894-0.010 0-0.144-0.49-0.288-1.086-0.336-1.374-0.365-1.413-0.769-1.413-0.259 0-0.336 0.038-0.336 0.163z"></path>
<path d="M22.679 18.892c0 0.173 0.798 2.979 0.98 3.421 0.144 0.375-0.106 0.75-0.5 0.75-0.269 0-0.288 0.019-0.288 0.384s0.019 0.384 0.288 0.384c0.49 0 0.913-0.231 1.086-0.605 0.144-0.308 1.22-4.18 1.22-4.401 0-0.048-0.173-0.087-0.384-0.087-0.317 0-0.384 0.038-0.432 0.211-0.279 1.22-0.529 2.22-0.557 2.258-0.029 0.019-0.183-0.529-0.356-1.22l-0.308-1.249h-0.375c-0.288 0-0.375 0.038-0.375 0.154z"></path>
<path d="M25.811 18.825c-0.029 0.038 0.183 0.913 0.48 1.932 0.5 1.739 0.519 1.864 0.375 2.076-0.106 0.154-0.24 0.231-0.432 0.231-0.269 0-0.288 0.019-0.288 0.384 0 0.375 0.010 0.384 0.336 0.384 0.452 0 0.874-0.231 1.047-0.567 0.154-0.288 1.211-4.132 1.211-4.392 0-0.106-0.087-0.135-0.356-0.115l-0.365 0.029-0.308 1.201c-0.173 0.663-0.317 1.22-0.317 1.249-0.010 0.029-0.096-0.298-0.202-0.721-0.423-1.749-0.442-1.778-0.807-1.778-0.173 0-0.346 0.038-0.375 0.087z"></path>
<path d="M28.829 18.835c0 0.058 0.24 0.923 0.538 1.932 0.298 1.038 0.5 1.903 0.471 2.008-0.038 0.106-0.173 0.221-0.317 0.25-0.471 0.106-0.5 0.125-0.5 0.471 0 0.317 0.019 0.336 0.336 0.336 0.461 0 0.874-0.231 1.057-0.577 0.163-0.317 1.201-4.074 1.201-4.353 0-0.125-0.077-0.163-0.336-0.163-0.404 0-0.423 0.029-0.74 1.48-0.115 0.557-0.24 1.019-0.269 1.019s-0.125-0.346-0.221-0.769c-0.096-0.432-0.24-0.99-0.317-1.249-0.135-0.471-0.154-0.48-0.519-0.48-0.211 0-0.384 0.048-0.384 0.096z"></path>
<path d="M11.262 21.449c-0.163 0.163-0.144 0.615 0.038 0.788 0.192 0.192 0.557 0.192 0.75 0 0.183-0.173 0.202-0.625 0.038-0.788-0.154-0.154-0.673-0.154-0.826 0z"></path>
<path d="M18.374 21.449c-0.067 0.067-0.115 0.259-0.115 0.432 0 0.327 0.202 0.509 0.557 0.509 0.394 0 0.663-0.663 0.384-0.942-0.154-0.154-0.673-0.154-0.826 0z"></path>
</symbol>
<symbol id="icon-distanceClass" viewBox="0 0 44 32">
<path d="M44.462 26.308c0 1.946 0 3.892 0 5.846-14.567 0-29.135 0-43.761-0.052 0.138-0.688 0.597-1.061 1.176-1.342 1.914-0.927 3.816-1.878 5.732-2.801 0.956-0.461 1.681-1.155 2.236-2.045 0.167-0.267 0.271-0.543 0.235-0.87-0.108-0.991-0.203-1.983-0.3-2.974-0.062-0.635-0.257-1.147-0.863-1.519-1.006-0.618-1.068-0.666-1.315 0.521-0.567 2.721-1.752 5.178-3.078 7.584-0.483 0.877-1.21 1.223-1.937 0.911-0.694-0.298-0.939-0.989-0.518-1.962 1.402-3.241 2.038-6.692 2.868-10.092 0.146-0.598-0.021-0.845-0.591-0.98-1.828-0.436-2.558-1.894-1.692-3.554 0.805-1.542 1.726-3.026 2.631-4.514 0.427-0.703 1.125-0.902 1.926-0.87 0.859 0.034 1.367 0.648 1.952 1.127 0.324 0.265 0.614 0.399 1.041 0.252 0.695-0.239 1.359-0.105 1.985 0.276 0.744 0.453 1.518 0.859 2.242 1.342 0.537 0.358 1.017 0.42 1.646 0.204 1.207-0.413 2.436-0.827 3.728-0.833 0.623-0.003 0.991-0.246 1.319-0.731 1.509-2.227 3.033-4.444 4.563-6.657 1.047-1.515 2.597-1.509 3.605 0.046 3.123 4.816 6.23 9.642 9.327 14.475 1.963 3.062 3.897 6.142 5.844 9.214zM33.741 16.625c0.457 0.205 0.913 0.41 1.37 0.616 0.038-0.043 0.076-0.087 0.114-0.13-2.55-4.025-5.1-8.050-7.759-12.249-4.271 6.172-8.497 12.108-12.38 18.526 0.568-0.238 0.805-0.511 1.064-0.755 1.64-1.545 3.274-3.097 4.918-4.638 0.892-0.835 1.842-0.714 2.508 0.305 0.252 0.386 0.476 0.791 0.744 1.165 0.318 0.444 0.473 1.018 0.971 1.314 0.353-0.135 0.373-0.45 0.475-0.698 0.584-1.42 1.149-2.847 1.733-4.267 0.505-1.228 1.218-1.501 2.442-0.943 1.234 0.563 2.464 1.135 3.8 1.754zM16.761 13.802c-1.363 0.516-2.683 0.267-3.933-0.328-0.673-0.32-1.006-0.184-1.304 0.457-0.312 0.671-0.677 1.321-1.071 1.948-0.326 0.52-0.28 0.842 0.287 1.151 1.452 0.794 2.638 1.792 2.446 3.689-0.001 0.013 0.036 0.030 0.152 0.122 1.602-2.412 3.199-4.815 4.845-7.293-0.54-0.063-0.911 0.135-1.42 0.254z"></path>
<path d="M12.391 0.154c1.449 0.45 2.543 1.178 2.945 2.697 0.457 1.725-0.406 3.655-2.082 4.51-1.482 0.757-3.28 0.391-4.306-0.876-1.146-1.415-1.128-3.48 0.018-4.892 0.48-0.591 1.107-0.973 1.771-1.399 0.549-0.040 1.066-0.040 1.654-0.040z"></path>
</symbol>
<symbol id="icon-nameUch" viewBox="0 0 26 32">
<path d="M0.1 25.547c0.311-0.497 0.601-0.963 0.937-1.393 1.495-1.914 3.48-2.933 5.877-3.215 0.388-0.046 0.585 0.127 0.794 0.382 1.086 1.321 2.442 2.218 4.149 2.48 2.552 0.393 4.769-0.316 6.492-2.256 0.49-0.552 0.952-0.681 1.601-0.545 2.366 0.495 4.291 1.674 5.726 3.678 0.025 2.485 0.025 4.949 0.025 7.422-8.169 0-16.337 0-24.574-0.026-0.387-0.209-0.707-0.391-1.026-0.574 0-1.969 0-3.938 0-5.953zM19.658 31.884c0.595-0.064 1.243 0.181 1.815-0.261-0.153-0.243-0.328-0.423-0.387-0.635-0.138-0.497-0.512-0.541-0.922-0.582-0.8-0.081-1.325 0.394-1.828 0.898-0.191 0.191-0.094 0.364 0.144 0.454 0.35 0.133 0.718 0.115 1.178 0.126z"></path>
<path d="M15.965 1.033c-0.108 1.029-0.22 2.018-0.328 3.008-0.013 0.115-0.003 0.233 0.005 0.349 0.013 0.203 0.123 0.358 0.307 0.417 0.224 0.072 0.334-0.114 0.418-0.272 0.085-0.16 0.135-0.339 0.19-0.513 0.218-0.681 0.438-1.361 0.645-2.045 0.11-0.36 0.29-0.451 0.619-0.234 1.931 1.27 3.277 2.986 3.774 5.256 0.166 0.756 0.546 1.128 1.2 1.353 0.349 0.12 0.627 0.283 0.644 0.719 0.028 0.723-0.093 0.896-0.809 1.070-1.184 0.286-2.397 0.37-3.603 0.481-2.872 0.263-5.754 0.283-8.632 0.193-2.272-0.071-4.551-0.166-6.787-0.661-0.48-0.106-0.794-0.314-0.817-0.843-0.022-0.505 0.203-0.831 0.688-0.962 0.746-0.203 1.044-0.688 1.212-1.447 0.501-2.262 1.876-3.929 3.811-5.159 0.325-0.206 0.465-0.095 0.547 0.258 0.146 0.631 0.325 1.254 0.498 1.878 0.058 0.208 0.127 0.415 0.216 0.61 0.085 0.185 0.22 0.37 0.448 0.332 0.248-0.041 0.336-0.26 0.345-0.489 0.031-0.752-0.181-1.481-0.229-2.226-0.019-0.297-0.067-0.594-0.126-0.886-0.059-0.29 0.066-0.443 0.322-0.527 1.696-0.558 3.393-0.579 5.093-0.020 0.163 0.054 0.313 0.122 0.346 0.359z"></path>
<path d="M6.498 13.126c0.29 2.679 1.355 4.855 3.775 6.141 2.821 1.499 6.279 0.564 8.078-2.076 1.010-1.482 1.456-3.124 1.5-4.885 0.011-0.453 0.12-0.674 0.582-0.705 1.367-0.090 1.252-0.287 1.372 1.141 0.071 0.849-0.116 1.696-0.488 2.472-0.403 0.838-0.805 1.683-1.287 2.476-1.551 2.554-3.845 3.986-6.828 4.004-3.262 0.019-5.696-1.554-7.202-4.445-0.518-0.994-1.171-1.943-1.381-3.083-0.14-0.756-0.235-1.508-0.063-2.274 0.064-0.285 0.197-0.38 0.49-0.347 0.442 0.050 0.991-0.078 1.287 0.235 0.298 0.315 0.018 0.869 0.166 1.347z"></path>
</symbol>
<symbol id="icon-rozryadUch" viewBox="0 0 42 32">
<path d="M20.821 0.379c-0.189 0.095-0.326 0.295-0.4 0.558s-0.105 2.021-0.105 4.768l0.011 4.347-4.979 0.032c-4.926 0.021-4.968 0.021-5.211 0.253l-0.242 0.221v7.758h-9.032l-0.653 0.547v12.316l0.611 0.611h39.937l0.611-0.611v-16.516l-0.274-0.284-0.284-0.274h-10.179l-0.021-6.695-0.032-6.695-0.589-0.505h-4.442c-3.705 0.011-4.484 0.032-4.726 0.168zM28.842 16v14.105h-17.263v-18.316h10.011l0.253-0.263 0.263-0.253v-9.379h6.737v14.105zM39.663 22.916l-0.032 7.137-4.495 0.032-4.505 0.021v-14.316h9.053l-0.021 7.126zM9.842 25.053v5l-3.916 0.032-3.926 0.021v-10.105l3.926 0.021 3.916 0.032v5z"></path>
<path d="M19.937 15.621c-0.347 0.2-1.053 0.653-1.568 1.021-1.337 0.958-1.6 1.505-1.011 2.105 0.453 0.442 0.789 0.4 1.674-0.221 0.411-0.295 0.779-0.526 0.811-0.526s0.053 1.516 0.053 3.368v3.368h-1.2c-1.179 0-1.211 0.011-1.421 0.274-0.4 0.505-0.253 1.168 0.305 1.463 0.453 0.232 5.968 0.232 6.421 0 0.589-0.305 0.716-1.032 0.263-1.474-0.232-0.242-0.326-0.263-1.316-0.263h-1.053v-9.021l-0.242-0.221c-0.368-0.347-0.937-0.305-1.716 0.126z"></path>
</symbol>
<symbol id="icon-teamName" viewBox="0 0 30 32">
<path d="M2.065 0.303c-0.734 0.215-1.439 0.842-1.781 1.605-0.176 0.372-0.186 1.037-0.186 13.945 0 13.416 0.010 13.554 0.205 13.994 0.245 0.538 0.783 1.116 1.311 1.399 0.391 0.215 0.401 0.215 8.142 0.245 7.114 0.020 7.75 0.010 7.907-0.137 0.313-0.313-0.069-0.998-0.705-1.272-0.254-0.108-1.605-0.137-7.3-0.137h-6.987l-0.333-0.225c-0.186-0.117-0.411-0.372-0.499-0.558-0.166-0.323-0.176-1.155-0.176-13.289 0-13.886-0.020-13.319 0.489-13.769 0.215-0.196 0.372-0.196 8.67-0.225l8.455-0.020v2.192c0 2.319 0.039 2.544 0.499 3.131 0.117 0.157 0.44 0.382 0.714 0.509 0.48 0.225 0.597 0.235 2.681 0.235h2.172v4.169c0 4.345 0.010 4.404 0.431 4.746 0.294 0.245 0.949 0.401 1.106 0.264 0.098-0.078 0.127-1.155 0.127-5.196v-5.098l-3.151-3.171c-1.752-1.761-3.298-3.229-3.474-3.308-0.264-0.117-1.801-0.137-9.15-0.127-5.372 0-8.964 0.049-9.169 0.098zM24.073 6.263c0 0.078-2.554 0.039-2.799-0.039-0.343-0.108-0.431-0.479-0.431-1.898v-1.341l1.615 1.615c0.891 0.891 1.615 1.634 1.615 1.664z"></path>
<path d="M5.911 6.351c-0.352 0.059-0.528 0.313-0.528 0.754 0 0.333 0.049 0.46 0.254 0.617 0.254 0.205 0.352 0.205 5.196 0.205h4.942l0.294-0.294c0.245-0.254 0.284-0.352 0.235-0.617-0.137-0.695 0.137-0.656-5.304-0.685-2.691-0.010-4.981 0-5.089 0.020z"></path>
<path d="M5.617 11.381c-0.196 0.166-0.264 0.323-0.264 0.558s0.069 0.391 0.264 0.558l0.264 0.225h15.374l0.284-0.284c0.303-0.313 0.343-0.489 0.166-0.822-0.245-0.47 0.020-0.45-8.122-0.46h-7.702l-0.264 0.225z"></path>
<path d="M5.774 16.078c-0.372 0.186-0.538 0.597-0.391 0.959 0.069 0.157 0.205 0.333 0.303 0.382 0.098 0.059 2.035 0.098 4.824 0.098h4.648l0.196-0.254c0.274-0.343 0.254-0.656-0.029-0.988l-0.235-0.274-4.541-0.029c-3.533-0.010-4.59 0.010-4.776 0.108z"></path>
<path d="M21.431 17.028c-1.977 0.313-3.709 1.439-4.805 3.112-1.938 2.965-1.341 6.919 1.39 9.189 0.616 0.499 2.055 1.223 2.828 1.409 0.773 0.196 2.642 0.166 3.425-0.049 3.709-0.998 5.921-4.805 4.942-8.524-0.636-2.398-2.613-4.365-5.010-4.981-0.744-0.196-2.075-0.264-2.769-0.157zM23.887 18.75c1.82 0.548 3.2 1.928 3.748 3.748 0.196 0.685 0.206 2.133 0.010 2.897-0.46 1.761-1.889 3.19-3.719 3.728-0.812 0.235-2.153 0.206-2.985-0.049-2.769-0.871-4.335-3.621-3.67-6.459 0.421-1.771 1.83-3.239 3.67-3.836 0.705-0.235 2.212-0.245 2.946-0.029z"></path>
<path d="M23.858 22.821c-0.705 0.665-1.507 1.409-1.781 1.664l-0.499 0.45-0.793-0.773c-0.656-0.636-0.851-0.773-1.106-0.773-0.391 0-0.793 0.401-0.793 0.793 0 0.313 0.48 0.949 1.331 1.761 0.754 0.724 0.998 0.871 1.39 0.871 0.274 0 0.489-0.157 1.507-1.106 2.672-2.466 3.112-2.926 3.112-3.278 0-0.421-0.372-0.802-0.783-0.802-0.254 0-0.519 0.206-1.585 1.194z"></path>
</symbol>
<symbol id="icon-usser" viewBox="0 0 32 32">
<path d="M14.184 0.528c-2.344 0.268-4.982 1.245-6.962 2.577-3.52 2.361-5.924 6.149-6.677 10.517-0.216 1.271-0.19 3.736 0.052 5.077 0.977 5.457 4.791 10.032 10.119 12.125 0.943 0.372 2.595 0.787 3.641 0.917 4.497 0.545 9.124-1.090 12.618-4.454 3.148-3.044 4.765-6.876 4.765-11.312-0.009-4.29-1.609-8.026-4.765-11.105-0.969-0.951-1.263-1.185-2.283-1.859-1.981-1.315-4.186-2.145-6.504-2.448-1.055-0.138-2.949-0.156-4.004-0.035zM17.686 1.73c3.261 0.363 6.106 1.687 8.389 3.909 2.352 2.275 3.779 4.938 4.333 8.112 0.208 1.168 0.208 3.753 0.009 4.8-0.528 2.681-1.479 4.739-3.114 6.694l-0.605 0.727-0.13-0.337c-0.329-0.848-1.479-2.119-2.525-2.811-1.029-0.683-2.474-1.315-3.503-1.539l-0.692-0.147-0.026-0.458c-0.026-0.432-0.009-0.476 0.363-0.873 0.778-0.839 1.496-2.145 1.782-3.269 0.069-0.242 0.164-0.45 0.216-0.45 0.19 0 0.657-0.579 0.822-1.021 0.311-0.804 0.138-1.773-0.355-2.128-0.112-0.078-0.208-0.19-0.208-0.251 0-0.112-1.090-0.424-1.176-0.329-0.035 0.026-0.078 0.675-0.104 1.436-0.061 2.11-0.476 3.434-1.496 4.791-0.51 0.683-1.098 1.159-1.937 1.557-0.588 0.277-0.735 0.311-1.539 0.337-0.744 0.035-0.986 0.009-1.505-0.156-1.652-0.536-3.036-2.205-3.581-4.307-0.173-0.649-0.233-1.159-0.277-2.266-0.061-1.358-0.069-1.427-0.233-1.401-0.458 0.061-0.925 0.233-0.977 0.355-0.026 0.078-0.138 0.208-0.251 0.294-0.337 0.268-0.458 0.605-0.458 1.271 0 0.726 0.208 1.245 0.666 1.652 0.242 0.208 0.372 0.45 0.588 1.072 0.32 0.951 0.83 1.834 1.479 2.603 0.45 0.528 0.467 0.571 0.467 1.055v0.502l-0.467 0.095c-0.605 0.13-1.782 0.623-1.842 0.77-0.078 0.208 1.081 1.825 1.946 2.724 0.77 0.813 1.617 1.496 3.001 2.456 0.709 0.493 1.747 1.47 2.162 2.032 0.164 0.216 0.372 0.597 0.467 0.839 0.199 0.502 0.164 0.545-0.415 0.545-0.294 0-0.346-0.035-0.614-0.45-0.45-0.701-1.237-1.427-2.413-2.223-2.084-1.41-3.347-2.646-4.515-4.402-0.32-0.493-0.605-0.943-0.623-0.995-0.061-0.173-1.254 0.701-2.050 1.496-0.407 0.407-0.873 0.96-1.038 1.228s-0.329 0.484-0.355 0.476c-0.121-0.035-1.038-1.185-1.488-1.859-0.977-1.453-1.764-3.433-2.102-5.25-0.251-1.323-0.225-4.169 0.043-5.405 1.116-5.198 4.566-9.133 9.505-10.845 0.83-0.285 2.301-0.614 3.088-0.683 0.77-0.069 2.551-0.052 3.287 0.026zM14.858 21.613c1.064 0.225 2.37 0.078 3.373-0.381l0.45-0.208v0.277c-0.009 0.675-0.64 1.436-1.548 1.868-0.649 0.303-1.738 0.32-2.352 0.043-0.813-0.381-1.323-1.021-1.436-1.808l-0.052-0.389 0.553 0.251c0.303 0.138 0.761 0.294 1.012 0.346z"></path>
<path d="M14.616 3.719c-2.923 0.467-5.103 2.75-5.578 5.855-0.035 0.199-0.112 0.406-0.182 0.467-0.381 0.311-0.51 1.003-0.251 1.289 0.19 0.216 0.311 0.216 1.341 0 1.687-0.346 3.183-0.467 6.054-0.467 2.863 0 4.255 0.104 6.071 0.467 1.055 0.216 1.124 0.216 1.349-0.026 0.277-0.294 0.242-0.649-0.104-1.133-0.173-0.242-0.32-0.571-0.355-0.796-0.285-1.903-1.773-4.048-3.399-4.904-1.012-0.536-1.963-0.761-3.304-0.796-0.64-0.017-1.384 0-1.643 0.043z"></path>
<path d="M4.238 10.906c-0.311 0.121-0.761 0.579-0.977 0.986-0.138 0.259-0.182 0.493-0.182 0.96 0 0.536 0.043 0.701 0.346 1.341 0.199 0.398 0.536 0.995 0.761 1.332 0.337 0.493 0.398 0.631 0.32 0.752-0.13 0.208-0.121 0.381 0.035 0.675 0.104 0.199 0.19 0.259 0.389 0.259 0.259 0 2.032-0.631 2.231-0.796 0.242-0.199 0.035-0.908-0.285-0.986-0.19-0.043-0.19-0.095-0.234-1.488-0.043-1.185-0.078-1.531-0.234-1.929-0.173-0.467-0.553-0.908-0.934-1.107-0.225-0.112-0.943-0.112-1.237 0zM5.276 12.065c0.182 0.19 0.208 0.337 0.277 1.323 0.043 0.605 0.061 1.401 0.052 1.773l-0.026 0.683-0.467-0.726c-0.718-1.098-0.986-1.652-1.029-2.171-0.035-0.424-0.009-0.493 0.242-0.778 0.337-0.389 0.657-0.424 0.951-0.104z"></path>
<path d="M12.895 13.111c-0.242 0.311-0.233 0.683 0.035 0.943 0.415 0.424 1.038 0.199 1.133-0.406 0.043-0.259 0.017-0.355-0.164-0.536-0.311-0.311-0.761-0.311-1.003 0z"></path>
<path d="M17.998 13.111c-0.242 0.311-0.233 0.683 0.035 0.943 0.424 0.432 1.168 0.13 1.168-0.476 0-0.623-0.83-0.943-1.202-0.467z"></path>
<path d="M6.487 17.133c-0.45 0.182-0.951 0.355-1.107 0.389-0.381 0.078-0.519 0.355-0.363 0.727 0.061 0.147 0.182 0.311 0.259 0.372 0.121 0.087 0.208 0.493 0.424 1.989 0.147 1.038 0.268 2.119 0.268 2.413v0.536l0.476-0.467c0.571-0.562 0.562-0.458 0.259-2.638-0.121-0.856-0.216-1.635-0.216-1.73s0.311 0.493 0.701 1.297c0.381 0.813 0.744 1.539 0.804 1.626 0.112 0.138 0.138 0.138 0.605-0.069l0.493-0.216-0.251-0.372c-0.242-0.363-1.401-2.759-1.401-2.915 0-0.043 0.078-0.104 0.173-0.13 0.311-0.104 0.199-0.882-0.156-1.072-0.104-0.052-0.381 0.017-0.969 0.259z"></path>
<path d="M14.296 16.873c-0.259 0.095-0.346 0.458-0.164 0.727 0.078 0.121 0.303 0.303 0.51 0.407 0.311 0.173 0.493 0.199 1.315 0.199 0.874 0 0.986-0.017 1.41-0.242 0.519-0.277 0.701-0.553 0.553-0.873-0.138-0.311-0.389-0.32-0.934-0.035-0.441 0.233-0.553 0.259-1.107 0.225-0.441-0.017-0.683-0.078-0.873-0.208-0.355-0.242-0.484-0.285-0.709-0.199z"></path>
</symbol>
</defs>
</svg>
