<?xml version="1.0" standalone="no"?>
<!DOCTYPE svg PUBLIC "-//W3C//DTD SVG 20010904//EN"
 "http://www.w3.org/TR/2001/REC-SVG-20010904/DTD/svg10.dtd">
<svg version="1.0" xmlns="http://www.w3.org/2000/svg"
 width="365.000000pt" height="408.000000pt" viewBox="0 0 365.000000 408.000000"
 preserveAspectRatio="xMidYMid meet">

<g transform="translate(0.000000,408.000000) scale(0.100000,-0.100000)"
fill="#000000" stroke="none">
<path d="M431 3559 c-75 -22 -147 -86 -182 -164 -18 -38 -19 -106 -19 -1425 0
-1371 1 -1385 21 -1430 25 -55 80 -114 134 -143 40 -22 41 -22 832 -25 727 -2
792 -1 808 14 32 32 -7 102 -72 130 -26 11 -164 14 -746 14 l-714 0 -34 23
c-19 12 -42 38 -51 57 -17 33 -18 118 -18 1358 0 1419 -2 1361 50 1407 22 20
38 20 886 23 l864 2 0 -224 c0 -237 4 -260 51 -320 12 -16 45 -39 73 -52 49
-23 61 -24 274 -24 l222 0 0 -426 c0 -444 1 -450 44 -485 30 -25 97 -41 113
-27 10 8 13 118 13 531 l0 521 -322 324 c-179 180 -337 330 -355 338 -27 12
-184 14 -935 13 -549 0 -916 -5 -937 -10z m2249 -609 c0 -8 -261 -4 -286 4
-35 11 -44 49 -44 194 l0 137 165 -165 c91 -91 165 -167 165 -170z"/>
<path d="M824 2941 c-36 -6 -54 -32 -54 -77 0 -34 5 -47 26 -63 26 -21 36 -21
531 -21 l505 0 30 30 c25 26 29 36 24 63 -14 71 14 67 -542 70 -275 1 -509 0
-520 -2z"/>
<path d="M794 2427 c-20 -17 -27 -33 -27 -57 0 -24 7 -40 27 -57 l27 -23 785
0 786 0 29 29 c31 32 35 50 17 84 -25 48 2 46 -830 47 l-787 0 -27 -23z"/>
<path d="M810 1947 c-38 -19 -55 -61 -40 -98 7 -16 21 -34 31 -39 10 -6 208
-10 493 -10 l475 0 20 26 c28 35 26 67 -3 101 l-24 28 -464 3 c-361 1 -469 -1
-488 -11z"/>
<path d="M2410 1850 c-202 -32 -379 -147 -491 -318 -198 -303 -137 -707 142
-939 63 -51 210 -125 289 -144 79 -20 270 -17 350 5 379 102 605 491 505 871
-65 245 -267 446 -512 509 -76 20 -212 27 -283 16z m251 -176 c186 -56 327
-197 383 -383 20 -70 21 -218 1 -296 -47 -180 -193 -326 -380 -381 -83 -24
-220 -21 -305 5 -283 89 -443 370 -375 660 43 181 187 331 375 392 72 24 226
25 301 3z"/>
<path d="M2658 1258 c-72 -68 -154 -144 -182 -170 l-51 -46 -81 79 c-67 65
-87 79 -113 79 -40 0 -81 -41 -81 -81 0 -32 49 -97 136 -180 77 -74 102 -89
142 -89 28 0 50 16 154 113 273 252 318 299 318 335 0 43 -38 82 -80 82 -26 0
-53 -21 -162 -122z"/>
</g>
</svg>
