<?xml version="1.0" standalone="no"?>
<!DOCTYPE svg PUBLIC "-//W3C//DTD SVG 20010904//EN"
 "http://www.w3.org/TR/2001/REC-SVG-20010904/DTD/svg10.dtd">
<svg version="1.0" xmlns="http://www.w3.org/2000/svg"
 width="370.000000pt" height="370.000000pt" viewBox="0 0 370.000000 370.000000"
 preserveAspectRatio="xMidYMid meet">

<g transform="translate(0.000000,370.000000) scale(0.100000,-0.100000)"
fill="#000000" stroke="none">
<path d="M1640 3639 c-271 -31 -576 -144 -805 -298 -407 -273 -685 -711 -772
-1216 -25 -147 -22 -432 6 -587 113 -631 554 -1160 1170 -1402 109 -43 300
-91 421 -106 520 -63 1055 126 1459 515 364 352 551 795 551 1308 -1 496 -186
928 -551 1284 -112 110 -146 137 -264 215 -229 152 -484 248 -752 283 -122 16
-341 18 -463 4z m405 -139 c377 -42 706 -195 970 -452 272 -263 437 -571 501
-938 24 -135 24 -434 1 -555 -61 -310 -171 -548 -360 -774 l-70 -84 -15 39
c-38 98 -171 245 -292 325 -119 79 -286 152 -405 178 l-80 17 -3 53 c-3 50 -1
55 42 101 90 97 173 248 206 378 8 28 19 52 25 52 22 0 76 67 95 118 36 93 16
205 -41 246 -13 9 -24 22 -24 29 0 13 -126 49 -136 38 -4 -3 -9 -78 -12 -166
-7 -244 -55 -397 -173 -554 -59 -79 -127 -134 -224 -180 -68 -32 -85 -36 -178
-39 -86 -4 -114 -1 -174 18 -191 62 -351 255 -414 498 -20 75 -27 134 -32 262
-7 157 -8 165 -27 162 -53 -7 -107 -27 -113 -41 -3 -9 -16 -24 -29 -34 -39
-31 -53 -70 -53 -147 0 -84 24 -144 77 -191 28 -24 43 -52 68 -124 37 -110 96
-212 171 -301 52 -61 54 -66 54 -122 l0 -58 -54 -11 c-70 -15 -206 -72 -213
-89 -9 -24 125 -211 225 -315 89 -94 187 -173 347 -284 82 -57 202 -170 250
-235 19 -25 43 -69 54 -97 23 -58 19 -63 -48 -63 -34 0 -40 4 -71 52 -52 81
-143 165 -279 257 -241 163 -387 306 -522 509 -37 57 -70 109 -72 115 -7 20
-145 -81 -237 -173 -47 -47 -101 -111 -120 -142 -19 -31 -38 -56 -41 -55 -14
4 -120 137 -172 215 -113 168 -204 397 -243 607 -29 153 -26 482 5 625 129
601 528 1056 1099 1254 96 33 266 71 357 79 89 8 295 6 380 -3z m-327 -2299
c123 -26 274 -9 390 44 l52 24 0 -32 c-1 -78 -74 -166 -179 -216 -75 -35 -201
-37 -272 -5 -94 44 -153 118 -166 209 l-6 45 64 -29 c35 -16 88 -34 117 -40z"/>
<path d="M1690 3270 c-338 -54 -590 -318 -645 -677 -4 -23 -13 -47 -21 -54
-44 -36 -59 -116 -29 -149 22 -25 36 -25 155 0 195 40 368 54 700 54 331 0
492 -12 702 -54 122 -25 130 -25 156 3 32 34 28 75 -12 131 -20 28 -37 66 -41
92 -33 220 -205 468 -393 567 -117 62 -227 88 -382 92 -74 2 -160 0 -190 -5z"/>
<path d="M490 2439 c-36 -14 -88 -67 -113 -114 -16 -30 -21 -57 -21 -111 0
-62 5 -81 40 -155 23 -46 62 -115 88 -154 39 -57 46 -73 37 -87 -15 -24 -14
-44 4 -78 12 -23 22 -30 45 -30 30 0 235 73 258 92 28 23 4 105 -33 114 -22 5
-22 11 -27 172 -5 137 -9 177 -27 223 -20 54 -64 105 -108 128 -26 13 -109 13
-143 0z m120 -134 c21 -22 24 -39 32 -153 5 -70 7 -162 6 -205 l-3 -79 -54 84
c-83 127 -114 191 -119 251 -4 49 -1 57 28 90 39 45 76 49 110 12z"/>
<path d="M1491 2184 c-28 -36 -27 -79 4 -109 48 -49 120 -23 131 47 5 30 2 41
-19 62 -36 36 -88 36 -116 0z"/>
<path d="M2081 2184 c-28 -36 -27 -79 4 -109 49 -50 135 -15 135 55 0 72 -96
109 -139 54z"/>
<path d="M750 1719 c-52 -21 -110 -41 -128 -45 -44 -9 -60 -41 -42 -84 7 -17
21 -36 30 -43 14 -10 24 -57 49 -230 17 -120 31 -245 31 -279 l0 -62 55 54
c66 65 65 53 30 305 -14 99 -25 189 -25 200 0 11 36 -57 81 -150 44 -94 86
-178 93 -188 13 -16 16 -16 70 8 l57 25 -29 43 c-28 42 -162 319 -162 337 0 5
9 12 20 15 36 12 23 102 -18 124 -12 6 -44 -2 -112 -30z"/>
<path d="M1653 1749 c-30 -11 -40 -53 -19 -84 9 -14 35 -35 59 -47 36 -20 57
-23 152 -23 101 0 114 2 163 28 60 32 81 64 64 101 -16 36 -45 37 -108 4 -51
-27 -64 -30 -128 -26 -51 2 -79 9 -101 24 -41 28 -56 33 -82 23z"/>
</g>
</svg>
