<?xml version="1.0" standalone="no"?>
<!DOCTYPE svg PUBLIC "-//W3C//DTD SVG 20010904//EN"
 "http://www.w3.org/TR/2001/REC-SVG-20010904/DTD/svg10.dtd">
<svg version="1.0" xmlns="http://www.w3.org/2000/svg"
 width="1149.000000pt" height="1326.000000pt" viewBox="0 0 1149.000000 1326.000000"
 preserveAspectRatio="xMidYMid meet">

<g transform="translate(0.000000,1326.000000) scale(0.100000,-0.100000)"
fill="#000000" stroke="none">
<path d="M5625 13250 c-37 -6 -96 -27 -153 -55 -236 -117 -392 -356 -774
-1180 -76 -164 -142 -303 -148 -309 -5 -5 -57 10 -132 38 -236 88 -367 117
-543 117 -201 0 -320 -45 -440 -165 -76 -77 -122 -157 -152 -267 -28 -99 -23
-359 11 -614 20 -151 122 -828 160 -1052 4 -27 -17 -47 -41 -41 -10 3 -130 76
-268 164 -137 87 -284 175 -325 196 -290 147 -604 47 -787 -251 -51 -82 -105
-212 -118 -284 -5 -24 -13 -37 -23 -37 -9 0 -141 25 -294 55 -716 143 -959
147 -1169 20 -121 -74 -224 -222 -255 -364 -44 -211 -2 -427 242 -1244 41
-137 72 -253 69 -257 -3 -5 -42 -28 -86 -52 -268 -143 -397 -344 -387 -607 3
-97 6 -112 40 -183 71 -149 187 -296 413 -522 349 -349 1006 -917 1787 -1546
147 -118 269 -220 272 -226 2 -7 -8 -53 -24 -103 -50 -159 -64 -244 -64 -396
0 -104 4 -157 18 -205 53 -194 197 -340 396 -402 73 -22 86 -23 420 -22 370 1
562 12 1299 79 212 19 399 35 417 35 28 0 40 -11 113 -102 312 -392 501 -781
552 -1137 18 -128 6 -389 -25 -527 -56 -256 -137 -452 -408 -997 -218 -439
-222 -450 -170 -506 36 -40 559 -291 605 -291 64 0 86 26 219 251 348 592 506
948 592 1330 82 370 76 777 -18 1121 -77 280 -221 581 -403 841 -30 42 -53 85
-51 95 2 12 18 19 53 25 110 19 251 59 321 91 219 102 392 276 509 511 103
209 135 340 142 590 6 200 -6 296 -53 446 -102 325 -361 631 -692 817 -497
280 -1055 292 -1452 32 -280 -184 -449 -454 -517 -825 -25 -133 -24 -470 1
-585 26 -121 52 -201 99 -309 30 -70 38 -98 30 -110 -8 -12 -39 -19 -134 -27
-331 -30 -787 -62 -949 -65 -78 -2 -94 0 -92 12 2 8 20 68 39 134 28 96 37
143 41 234 6 136 -6 197 -56 300 -49 102 -113 167 -352 360 -878 710 -1431
1182 -1838 1569 -121 115 -162 160 -160 175 2 13 28 35 73 61 38 23 104 75
146 116 90 89 132 166 156 289 29 145 11 234 -152 781 -117 391 -164 561 -158
577 12 30 48 25 608 -89 426 -86 528 -85 708 10 128 67 222 182 297 365 20 50
44 95 52 101 13 8 62 -19 220 -118 481 -303 568 -361 568 -378 0 -9 -13 -84
-29 -165 -99 -499 -92 -796 23 -1080 95 -233 248 -404 451 -504 133 -65 194
-80 355 -86 199 -8 367 30 555 125 416 209 606 626 491 1077 -27 103 -101 270
-158 353 -98 145 -272 289 -749 625 l-67 46 -6 83 c-21 253 -47 454 -141 1053
-35 226 -74 481 -86 569 -29 207 -36 201 143 134 190 -72 300 -98 415 -98 247
0 422 111 551 350 22 41 110 228 197 415 211 460 304 639 331 643 29 4 79 -86
386 -696 131 -261 258 -505 283 -543 91 -136 231 -233 385 -265 157 -33 328 5
570 126 l122 61 -7 -33 c-4 -18 -31 -137 -61 -265 -154 -664 -190 -947 -172
-1341 6 -134 13 -176 43 -287 l35 -130 -63 -59 c-34 -32 -139 -123 -233 -201
-93 -78 -190 -164 -213 -191 -353 -400 -360 -922 -17 -1241 112 -104 252 -178
422 -224 121 -33 334 -38 445 -10 176 44 352 158 458 297 67 88 154 267 180
367 61 237 51 406 -52 845 l-34 144 21 20 c23 22 417 374 510 456 33 29 66 52
73 52 7 0 34 -44 60 -97 39 -80 63 -113 128 -179 90 -91 168 -135 283 -159
135 -29 230 -19 584 61 134 30 323 72 421 92 226 46 220 51 171 -116 -19 -64
-97 -304 -174 -532 -176 -525 -192 -595 -170 -734 32 -201 142 -350 339 -461
71 -40 85 -55 75 -77 -8 -21 -352 -302 -1134 -927 -972 -776 -1017 -814 -1074
-900 -97 -145 -125 -268 -126 -548 0 -121 -4 -194 -10 -198 -6 -4 -40 -11 -77
-16 -132 -19 -394 25 -633 105 -69 23 -132 40 -141 38 -11 -2 -50 -100 -127
-323 -62 -175 -112 -329 -112 -342 0 -38 38 -87 83 -107 118 -52 413 -125 607
-151 146 -19 385 -15 505 9 287 58 503 198 604 392 71 135 83 200 88 468 l5
233 817 653 c997 797 1268 1021 1437 1190 109 110 137 144 172 212 57 111 76
195 69 309 -11 182 -90 324 -255 456 -61 49 -221 140 -282 161 -6 2 40 151
105 348 131 391 211 658 251 840 37 169 40 351 7 455 -62 196 -210 336 -413
391 -49 13 -101 18 -215 17 -208 -1 -409 -33 -888 -144 -168 -39 -221 -48
-232 -39 -8 6 -32 66 -54 133 -47 141 -82 198 -174 284 -112 104 -236 153
-392 153 -208 0 -323 -63 -691 -380 -102 -88 -189 -160 -194 -160 -4 0 -13 7
-21 16 -25 31 18 339 97 684 149 651 156 694 156 895 0 109 -5 157 -21 218
-54 205 -177 347 -357 414 -54 20 -94 26 -184 30 -193 8 -363 -37 -611 -163
-59 -30 -113 -52 -120 -49 -8 3 -101 180 -208 393 -325 650 -467 887 -626
1048 -132 133 -240 187 -400 198 -38 2 -97 1 -130 -4z m70 -260 c18 -20 18
-25 -5 -180 -13 -90 -29 -165 -36 -171 -17 -14 -254 143 -254 168 0 10 33 49
73 89 52 51 88 77 127 92 69 26 73 26 95 2z m278 -93 c89 -88 169 -204 157
-227 -11 -21 -209 -140 -232 -140 -9 0 -32 22 -52 49 l-36 49 24 155 c13 86
27 160 31 166 14 24 47 8 108 -52z m-538 -303 c75 -43 115 -71 115 -82 -1 -10
-31 -71 -68 -137 -48 -85 -73 -121 -87 -122 -29 -4 -239 108 -243 129 -2 9 25
68 59 130 63 115 85 148 101 148 5 0 60 -30 123 -66z m813 -91 c38 -55 134
-244 129 -256 -6 -16 -219 -127 -245 -127 -16 0 -34 26 -84 118 -81 151 -80
147 -60 165 24 21 215 127 229 127 6 0 20 -12 31 -27z m-1013 -345 c84 -41 90
-46 88 -74 0 -16 -26 -82 -57 -146 -43 -89 -61 -118 -76 -118 -19 0 -215 84
-237 103 -7 5 -13 16 -13 23 0 21 118 267 132 275 14 9 36 0 163 -63z m1298
-196 c38 -74 66 -140 63 -148 -6 -17 -220 -124 -247 -124 -14 0 -36 34 -84
130 -36 71 -65 136 -65 144 0 18 218 136 245 133 15 -1 38 -37 88 -135z
m-1500 -241 c126 -59 126 -27 -1 -281 -68 -137 -92 -176 -108 -178 -18 -3 -38
20 -105 114 -45 65 -82 123 -82 130 0 26 117 263 132 268 27 7 54 -2 164 -53z
m1643 -59 c14 -9 134 -246 134 -264 0 -7 -33 -67 -73 -133 -88 -143 -101 -150
-147 -78 -53 82 -181 343 -175 354 6 8 232 127 245 128 3 1 10 -3 16 -7z
m-2640 -57 c96 -18 204 -53 223 -71 12 -11 8 -30 -29 -131 -23 -65 -49 -124
-56 -132 -10 -12 -28 -9 -116 16 l-103 29 -31 152 -31 152 32 0 c18 0 68 -7
111 -15z m-297 -14 c8 -5 25 -69 41 -152 25 -126 26 -146 14 -159 -12 -12 -43
-15 -147 -15 l-132 0 1 55 c1 32 10 76 23 106 23 53 95 131 146 157 35 19 36
19 54 8z m3878 -103 c-11 -51 -27 -122 -36 -157 l-16 -64 -70 -29 c-38 -15
-78 -28 -87 -28 -18 0 -137 210 -138 242 0 22 65 55 175 91 79 26 174 47 186
40 4 -1 -2 -44 -14 -95z m241 63 c80 -42 147 -135 170 -238 9 -37 7 -44 -13
-63 -21 -20 -29 -21 -155 -14 -86 5 -133 11 -136 19 -6 16 54 286 68 302 14
17 22 16 66 -6z m-3332 -107 l85 -27 83 -120 c76 -108 83 -122 74 -147 -10
-31 -38 -40 -122 -40 -93 0 -326 73 -326 102 0 17 80 229 93 246 13 16 17 16
113 -14z m2600 -62 c15 -9 124 -227 124 -247 0 -10 -26 -28 -67 -47 -206 -93
-363 -112 -385 -46 -8 22 1 43 66 149 l75 123 83 37 c96 43 90 41 104 31z
m-3327 -266 c17 -21 48 -293 34 -307 -15 -15 -255 -48 -274 -38 -12 6 -19 34
-27 96 -23 184 -25 220 -11 228 10 7 157 26 250 34 9 0 22 -5 28 -13z m4114
-30 c54 -8 104 -19 112 -26 15 -13 14 -26 -17 -197 -11 -63 -26 -117 -34 -124
-12 -10 -41 -6 -137 15 -67 16 -128 34 -135 41 -11 10 -10 31 7 119 12 59 21
119 21 135 0 55 22 60 183 37z m-4044 -458 c13 -36 45 -273 39 -290 -5 -11
-39 -20 -120 -32 -62 -9 -120 -19 -128 -21 -34 -10 -43 14 -67 161 -17 104
-20 151 -13 158 12 12 182 43 243 45 30 1 39 -3 46 -21z m3939 -15 c75 -16
126 -32 129 -40 8 -19 -56 -285 -71 -301 -11 -11 -35 -9 -137 13 -68 14 -130
32 -137 39 -11 11 -7 37 19 152 32 139 41 164 63 164 6 0 67 -12 134 -27z
m-3876 -445 c21 -17 64 -293 49 -312 -14 -17 -268 -53 -281 -40 -11 11 -53
265 -48 296 3 21 13 25 128 44 69 12 128 22 131 23 3 1 12 -5 21 -11z m3778
-28 c57 -11 110 -26 116 -32 10 -10 8 -42 -11 -152 -13 -76 -28 -143 -33 -148
-6 -6 -50 -6 -123 1 -142 14 -155 17 -162 36 -7 16 30 255 44 292 11 29 31 29
169 3z m-5000 -274 c91 -46 250 -155 250 -172 0 -16 -97 -180 -128 -216 -8
-10 -21 -18 -28 -18 -14 0 -175 99 -186 115 -4 5 -8 73 -8 151 0 177 7 187
100 140z m-260 -1 c11 -14 50 -250 50 -305 -1 -14 -7 -34 -15 -44 -14 -19 -18
-18 -141 20 -70 21 -134 44 -143 51 -35 26 87 207 178 265 52 32 54 33 71 13z
m6526 -10 c5 -13 -89 -300 -105 -323 -3 -4 -25 -20 -49 -35 l-43 -28 -23 28
c-116 137 -156 189 -156 199 0 14 64 69 127 107 91 57 236 87 249 52z m219
-111 c31 -32 46 -62 85 -180 48 -143 50 -175 13 -202 -47 -32 -210 -122 -221
-122 -18 0 -31 34 -52 136 l-19 97 66 126 c87 167 96 176 128 145z m-5186 -58
c14 -17 54 -312 45 -338 -3 -10 -14 -18 -24 -18 -11 0 -81 42 -157 93 l-138
92 -9 63 c-6 45 -6 66 3 75 8 8 152 34 257 46 6 0 17 -5 23 -13z m3754 -35
c14 -14 9 -293 -5 -302 -6 -4 -69 -12 -140 -19 -110 -11 -132 -11 -139 1 -14
23 -11 313 4 328 15 16 263 9 280 -8z m-4516 -118 c77 -49 123 -84 123 -95 0
-21 -129 -228 -147 -235 -15 -6 -262 145 -270 165 -7 18 136 242 155 242 9 0
71 -35 139 -77z m5323 -43 c47 -55 86 -104 88 -109 6 -18 -217 -212 -239 -209
-22 4 -191 196 -187 213 4 20 220 205 238 205 9 0 54 -45 100 -100z m2275 -25
c60 -17 132 -63 162 -103 l21 -29 -145 -84 c-80 -46 -153 -82 -162 -81 -9 1
-37 5 -63 8 -27 3 -48 11 -48 18 0 6 -5 63 -10 126 -13 142 -10 157 33 163 49
6 156 -3 212 -18z m-418 -13 c7 -4 21 -66 32 -137 17 -109 18 -132 7 -143 -14
-15 -253 -62 -273 -55 -15 6 -17 11 -47 153 -21 95 -23 117 -12 128 7 7 69 24
137 37 145 27 141 27 156 17z m-8142 -37 c66 -20 125 -41 132 -48 11 -10 9
-27 -11 -85 -54 -156 -146 -290 -184 -266 -9 6 -43 73 -75 148 l-58 137 22 62
c23 62 36 87 48 87 3 0 60 -16 126 -35z m-1321 8 c17 -5 18 -12 12 -102 -8
-102 -19 -178 -30 -188 -3 -3 -38 -5 -78 -5 l-73 2 -107 112 c-60 62 -108 121
-108 131 0 22 51 45 128 57 55 8 218 4 256 -7z m374 -55 c78 -14 115 -25 119
-36 8 -20 -38 -260 -52 -272 -16 -14 -286 36 -301 55 -12 17 21 251 39 273 12
15 8 15 195 -20z m8662 -115 c13 -54 24 -116 24 -138 l1 -40 -125 -32 c-69
-17 -139 -32 -157 -32 -36 -1 -33 -10 -73 172 -14 64 -19 102 -12 109 16 16
285 75 303 67 11 -5 25 -43 39 -106z m-6350 22 c78 -51 130 -91 130 -101 0
-23 -140 -234 -155 -234 -22 0 -265 161 -265 176 0 16 142 243 152 244 4 0 66
-38 138 -85z m-1850 2 l154 -32 57 -140 c42 -102 55 -143 47 -152 -18 -22
-105 -15 -305 24 -152 29 -193 40 -193 52 0 9 12 76 26 149 21 104 30 132 43
132 9 -1 86 -15 171 -33z m6409 -107 c50 -55 91 -104 91 -109 0 -10 -115 -117
-142 -132 -13 -7 -21 -4 -32 13 -16 26 -76 243 -76 276 0 21 34 52 57 52 6 0
52 -45 102 -100z m-7623 -31 l119 -91 8 -55 c5 -35 5 -59 -2 -66 -5 -5 -67
-22 -137 -38 -104 -24 -130 -27 -141 -17 -7 7 -18 57 -25 110 -17 133 5 248
47 248 6 0 65 -41 131 -91z m7254 -99 c30 -112 40 -164 33 -171 -13 -13 -227
-79 -254 -79 -10 0 -21 4 -24 10 -3 5 -25 80 -49 165 -32 117 -40 159 -32 170
15 19 247 84 267 74 10 -5 31 -66 59 -169z m1694 62 c25 -147 25 -146 -112
-147 -90 0 -102 2 -164 33 -62 30 -91 62 -73 80 3 4 61 39 128 79 102 60 129
71 162 70 l39 -2 20 -113z m1550 22 c14 -36 -38 -302 -61 -311 -22 -9 -264 58
-270 75 -3 7 1 48 8 90 l15 76 139 46 c77 26 145 45 152 43 6 -3 14 -11 17
-19z m-7033 -110 c66 -42 119 -78 119 -81 0 -13 -152 -234 -164 -239 -21 -8
-235 137 -236 159 0 23 138 237 152 237 6 0 64 -34 129 -76z m295 -200 c149
-101 234 -168 234 -184 0 -24 -151 -220 -170 -220 -9 0 -75 42 -148 94 l-131
93 79 122 c44 66 83 121 88 121 5 0 27 -12 48 -26z m-3599 -42 c15 -10 92
-288 83 -303 -4 -6 -64 -28 -133 -49 -97 -28 -130 -35 -141 -26 -22 17 -92
284 -80 304 8 12 132 52 254 81 3 0 10 -3 17 -7z m10128 -84 l100 -33 -1 -35
c-2 -54 -73 -270 -91 -277 -18 -7 -250 66 -264 83 -9 11 18 110 77 293 6 18
52 10 179 -31z m-2948 10 c11 -15 63 -217 63 -247 0 -11 -5 -23 -12 -27 -21
-13 -251 -62 -265 -57 -13 5 -16 15 -54 166 -15 62 -19 91 -11 99 12 12 217
76 248 77 12 1 26 -5 31 -11z m-539 -105 c5 -10 24 -78 43 -152 l34 -133 -35
-30 c-73 -62 -98 -78 -111 -73 -20 9 -169 200 -169 218 0 17 195 187 215 187
8 0 18 -8 23 -17z m-3571 -80 c57 -38 103 -75 103 -84 0 -8 -6 -23 -13 -32
-11 -17 -19 -17 -115 -2 -56 8 -106 15 -111 15 -5 0 -16 6 -24 14 -11 12 -12
26 -4 73 10 63 21 83 45 83 9 0 62 -30 119 -67z m981 -42 c71 -61 162 -172
162 -197 0 -13 -72 -53 -196 -108 l-62 -28 -86 87 c-50 51 -83 92 -79 98 22
39 173 207 185 207 4 0 38 -27 76 -59z m-3875 -281 c21 -63 39 -133 40 -155
l2 -39 -130 -38 c-105 -31 -132 -36 -142 -25 -21 21 -97 287 -85 299 15 15
224 78 252 75 23 -2 29 -13 63 -117z m6196 35 c54 -47 102 -92 105 -100 3 -8
-10 -32 -29 -54 -18 -23 -43 -58 -56 -78 -37 -63 -36 -62 -175 -38 -162 29
-166 33 -126 119 45 97 147 236 173 236 5 0 53 -38 108 -85z m3708 -42 c9 -12
2 -41 -32 -141 -58 -168 -55 -162 -74 -162 -27 0 -235 71 -251 86 -13 12 -9
32 33 158 27 80 53 146 60 149 18 6 250 -73 264 -90z m-2788 65 c19 -51 57
-330 47 -346 -6 -10 -283 30 -295 44 -4 5 -16 58 -25 117 -9 60 -19 114 -21
120 -10 26 18 40 121 62 144 30 162 31 173 3z m-4247 1 c63 -6 107 -16 114
-24 6 -9 8 -35 3 -72 -4 -32 -8 -88 -8 -125 -1 -41 -6 -72 -14 -80 -8 -7 -71
-22 -141 -32 -171 -26 -164 -34 -149 161 6 82 15 156 18 166 8 20 33 21 177 6z
m515 -80 c129 -102 191 -167 213 -227 28 -73 26 -123 -5 -160 -35 -41 -137
-85 -211 -90 -58 -4 -62 -3 -86 27 -39 45 -69 136 -75 221 -7 103 13 281 34
297 20 15 30 10 130 -68z m751 -113 c36 -110 39 -317 6 -351 -13 -13 -23 -11
-82 11 -37 14 -92 35 -122 46 -76 29 -80 33 -80 93 0 28 -5 77 -11 109 -9 41
-9 60 -1 68 13 13 229 68 257 65 14 -1 24 -15 33 -41z m2472 -65 c14 -28 12
-79 -6 -141 -24 -81 -40 -100 -83 -100 -41 0 -121 33 -121 50 0 32 38 90 96
146 69 67 96 77 114 45z m-6506 -163 c22 -35 48 -165 48 -238 0 -70 -13 -117
-36 -126 -16 -6 -256 126 -267 147 -12 23 -33 159 -25 166 5 6 234 70 258 72
4 1 14 -9 22 -21z m6044 -10 c7 -7 12 -29 12 -49 0 -22 12 -60 30 -94 17 -31
30 -62 30 -68 0 -6 -32 -60 -71 -119 -51 -77 -77 -108 -91 -108 -26 0 -100 81
-137 150 -45 84 -78 222 -61 250 5 8 52 21 117 31 135 21 156 22 171 7z
m-3152 -39 c7 -13 33 -68 59 -122 l47 -97 -58 -67 c-118 -135 -130 -146 -152
-134 -54 29 -192 303 -177 351 5 15 238 101 260 96 6 -2 15 -13 21 -27z m3993
-11 c64 -23 122 -46 129 -52 20 -15 8 -57 -44 -164 -51 -101 -148 -218 -175
-207 -17 7 -159 211 -159 230 0 7 15 36 34 63 19 28 42 73 52 99 17 48 32 73
42 73 2 0 57 -19 121 -42z m2644 9 c59 -18 113 -39 119 -45 9 -9 9 -23 -1 -62
-15 -60 -8 -110 19 -135 11 -10 20 -22 20 -26 0 -4 -39 -53 -86 -108 -106
-123 -119 -127 -188 -51 -85 96 -107 219 -65 370 11 40 22 77 25 82 9 14 47 8
157 -25z m-5685 -189 c66 -52 102 -88 102 -101 0 -28 -115 -142 -200 -198 -82
-54 -116 -67 -132 -51 -13 13 -98 228 -98 248 0 8 26 31 57 51 31 20 77 58
102 84 25 27 50 49 56 49 5 0 56 -37 113 -82z m2474 -69 c24 -7 78 -12 121
-12 71 0 80 -2 88 -21 20 -47 66 -244 59 -255 -19 -33 -176 -40 -298 -15 -103
21 -142 38 -142 62 0 23 77 231 92 250 6 7 17 11 24 8 7 -3 32 -10 56 -17z
m-6556 -82 c139 -96 148 -112 82 -151 -24 -14 -87 -43 -140 -65 l-97 -41 -137
53 c-80 30 -142 60 -148 70 -9 16 -4 25 39 63 42 38 249 154 274 154 5 0 62
-37 127 -83z m3411 18 c40 -11 78 -14 124 -10 48 5 68 3 76 -7 18 -22 66 -259
55 -270 -15 -15 -87 -27 -158 -28 -123 0 -284 45 -284 81 0 31 101 249 116
249 7 0 39 -7 71 -15z m6792 -77 c29 -17 81 -57 115 -89 52 -49 59 -60 50 -76
-12 -20 -236 -121 -271 -122 -12 -1 -25 4 -29 10 -4 6 -40 26 -81 45 -40 19
-76 41 -79 49 -6 13 68 109 159 207 30 32 41 30 136 -24z m-10571 -273 c86
-25 159 -51 163 -57 4 -7 26 -37 48 -67 24 -31 37 -59 33 -66 -10 -18 -171
-163 -192 -175 -15 -8 -26 -1 -60 37 -54 62 -123 167 -143 221 -16 39 -24 152
-12 152 3 0 76 -20 163 -45z m10806 -91 c18 -17 15 -37 -15 -120 -23 -60 -122
-184 -148 -184 -18 0 -201 189 -201 207 0 7 305 107 342 112 4 1 14 -6 22 -15z
m-382 -310 c49 -54 88 -104 88 -111 0 -12 -58 -66 -168 -156 -50 -41 -75 -56
-86 -50 -18 10 -176 201 -176 213 0 14 233 210 245 207 6 -2 49 -48 97 -103z
m-9942 -9 c102 -102 104 -106 90 -129 -26 -42 -170 -186 -186 -186 -16 0 -209
182 -226 213 -8 15 6 34 83 113 58 59 100 94 114 94 13 0 59 -39 125 -105z
m9504 -222 c75 -85 146 -180 146 -195 0 -20 -214 -198 -239 -198 -20 0 -181
190 -181 214 0 14 226 206 242 206 4 0 19 -12 32 -27z m-9155 -104 c71 -64
110 -107 107 -115 -11 -30 -172 -204 -188 -204 -22 0 -233 192 -233 212 0 22
166 208 186 208 9 0 66 -46 128 -101z m8849 -283 c45 -57 82 -108 82 -114 0
-13 -232 -202 -248 -202 -11 0 -182 206 -182 219 0 13 19 30 124 114 59 48
116 87 125 87 9 -1 53 -47 99 -104z m-8488 -31 c60 -53 110 -103 110 -111 0
-21 -167 -214 -185 -214 -22 0 -235 189 -235 209 0 24 161 210 182 211 9 0 67
-43 128 -95z m3961 45 c25 0 53 -6 63 -13 18 -13 18 -18 -2 -142 -11 -70 -25
-132 -31 -138 -10 -10 -237 -14 -246 -5 -10 10 -54 259 -48 274 8 21 103 36
183 28 19 -2 56 -4 81 -4z m399 -96 c108 -43 150 -69 150 -91 -1 -28 -125
-228 -144 -231 -9 -2 -54 12 -99 32 -45 19 -94 38 -109 41 -15 4 -29 13 -32
20 -4 13 56 244 70 266 9 15 64 3 164 -37z m-776 -92 c26 -67 46 -129 43 -137
-4 -8 -30 -26 -59 -41 -29 -14 -67 -37 -85 -50 -17 -13 -37 -24 -43 -24 -17 0
-210 180 -210 196 0 34 240 187 285 181 16 -1 31 -29 69 -125z m4524 -127 c59
-74 82 -110 77 -122 -7 -19 -216 -186 -239 -191 -17 -4 -189 205 -183 222 5
17 230 195 247 196 8 0 52 -47 98 -105z m-7742 -40 c63 -53 114 -102 114 -110
0 -23 -163 -215 -181 -215 -18 0 -227 169 -241 194 -6 10 17 44 74 113 83 100
96 113 112 113 4 0 60 -43 122 -95z m4371 37 c74 -62 173 -163 173 -177 0 -15
-29 -40 -133 -115 -62 -45 -93 -61 -102 -54 -58 42 -185 161 -185 172 0 20
159 222 175 222 8 0 40 -22 72 -48z m-1505 -129 c61 -37 113 -73 115 -80 3 -7
-16 -54 -41 -105 -25 -51 -46 -99 -46 -105 0 -28 -34 -29 -157 -7 -69 13 -131
28 -136 33 -26 26 107 331 144 331 5 0 60 -30 121 -67z m4496 -167 c45 -57 82
-111 82 -119 0 -16 -225 -197 -245 -197 -23 0 -186 209 -177 226 13 23 225
193 242 193 8 1 52 -46 98 -103z m-3690 48 c264 -66 498 -259 563 -463 55
-174 4 -426 -110 -540 -64 -64 -87 -69 -536 -110 -117 -11 -207 -15 -216 -10
-28 14 -158 214 -204 312 -64 137 -79 212 -72 360 3 67 13 146 21 176 45 162
142 260 289 291 56 12 183 4 265 -16z m-3303 -94 c60 -50 113 -97 117 -104 10
-17 -156 -226 -178 -226 -22 0 -244 182 -244 200 0 25 163 220 184 220 6 0 60
-41 121 -90z m4335 -72 c22 -46 49 -118 62 -161 21 -75 22 -80 5 -92 -19 -13
-260 -41 -276 -31 -5 4 -17 30 -27 59 -9 28 -30 78 -45 109 -16 31 -26 63 -24
70 8 18 215 127 243 128 19 0 30 -14 62 -82z m2214 -105 c76 -88 146 -180 146
-195 0 -15 -193 -182 -225 -195 -9 -3 -59 30 -120 79 -83 65 -105 88 -103 105
2 14 48 58 132 127 72 58 133 106 138 106 4 0 19 -12 32 -27z m-6174 -128 c58
-47 106 -92 108 -99 2 -8 -45 -57 -104 -110 -91 -80 -110 -93 -124 -83 -52 37
-179 144 -184 154 -3 7 22 48 56 90 82 105 109 133 127 133 9 0 63 -38 121
-85z m2098 63 c8 -8 12 -49 12 -144 0 -117 -2 -134 -17 -143 -10 -5 -72 -21
-137 -35 -158 -36 -151 -43 -151 157 0 84 3 160 8 171 7 17 16 18 140 11 72
-4 138 -12 145 -17z m1953 -264 c17 -10 5 -201 -18 -289 -14 -56 -22 -71 -39
-73 -23 -3 -232 73 -253 93 -10 10 -11 23 -3 61 6 27 13 83 17 124 10 113 -4
104 150 97 74 -3 139 -9 146 -13z m-3702 -134 c33 -72 39 -166 16 -259 -9 -38
-22 -72 -29 -74 -15 -6 -244 60 -263 76 -9 6 -11 25 -7 61 7 55 -10 106 -41
123 -11 6 15 34 103 111 l117 102 39 -42 c21 -24 50 -68 65 -98z m5544 28 c56
-44 108 -88 115 -96 18 -24 16 -147 -4 -166 -22 -23 -265 -23 -284 -1 -17 21
-7 221 15 293 12 40 20 52 36 52 11 0 66 -37 122 -82z m-3746 -75 c21 -65 89
-206 127 -267 47 -76 55 -103 33 -112 -28 -10 -283 -31 -298 -23 -18 9 -101
171 -129 255 -16 47 -18 60 -8 71 17 16 217 92 246 93 13 0 25 -7 29 -17z
m1671 -289 c83 -49 112 -71 112 -86 0 -34 -90 -160 -172 -242 -67 -65 -82 -76
-93 -65 -7 8 -45 65 -84 128 l-72 113 49 52 c26 28 65 77 85 109 20 31 43 57
50 57 7 0 63 -30 125 -66z m2050 -58 c67 -8 129 -20 138 -27 19 -15 11 -91
-18 -189 -30 -98 -97 -193 -158 -225 -38 -20 -46 -11 -118 127 -59 114 -60
117 -41 134 22 20 39 74 39 126 0 28 20 69 33 68 1 0 57 -7 125 -14z m-5693
-64 l110 -27 -1 -30 c-1 -16 -7 -65 -15 -107 l-13 -77 -130 -72 c-143 -79
-154 -80 -169 -13 -17 77 23 335 54 355 8 4 23 6 34 3 11 -3 70 -17 130 -32z
m3264 -225 c23 -67 41 -130 41 -139 0 -22 -69 -43 -200 -63 -126 -20 -157 -19
-169 3 -14 27 -26 268 -13 276 6 4 49 11 96 17 47 6 107 16 133 23 27 7 53 10
60 8 7 -2 30 -58 52 -125z m1607 28 c12 -3 24 -11 27 -18 7 -20 -23 -260 -35
-275 -12 -14 -34 -12 -193 25 -131 30 -145 37 -145 66 1 40 57 249 69 256 7 5
67 -5 134 -21 67 -16 132 -31 143 -33z m-2112 27 c2 -4 10 -65 17 -136 10
-107 9 -130 -2 -141 -9 -9 -57 -18 -124 -24 -60 -6 -129 -13 -151 -16 -63 -9
-69 3 -84 155 -7 72 -9 134 -5 138 16 16 340 39 349 24z m2641 -180 c20 -86
26 -125 18 -133 -19 -19 -178 -40 -280 -37 l-98 3 -3 60 c-1 33 1 98 5 145 l8
85 107 8 c59 4 125 11 145 16 53 12 63 -3 98 -147z m-3141 95 c3 -17 10 -77
16 -131 8 -79 8 -102 -2 -112 -19 -18 -276 -40 -291 -25 -6 6 -17 69 -24 139
-10 104 -10 129 1 140 16 17 253 42 278 30 9 -5 20 -23 22 -41z m-446 -134 c9
-110 9 -140 -1 -150 -7 -7 -60 -17 -122 -23 -61 -6 -125 -12 -142 -14 -20 -3
-38 1 -46 9 -18 18 -42 264 -27 279 11 12 176 32 271 35 l55 1 12 -137z m-498
75 c5 -13 13 -75 19 -138 7 -93 6 -118 -5 -129 -18 -19 -289 -42 -310 -26 -22
15 -41 263 -22 281 8 7 58 17 123 22 181 15 184 15 195 -10z m-482 -35 c5 -10
13 -72 17 -139 5 -98 4 -122 -8 -132 -17 -14 -285 -32 -308 -21 -27 13 -41
266 -16 287 13 11 75 17 224 20 69 2 84 -1 91 -15z m-483 -14 c5 -5 11 -65 13
-134 3 -95 1 -129 -9 -141 -21 -26 -273 -15 -352 15 -59 23 -87 44 -87 65 0 7
55 57 123 112 l123 99 89 -3 c50 -2 94 -8 100 -13z m2447 -366 c63 -69 127
-166 119 -180 -9 -17 -247 -133 -272 -133 -21 0 -212 267 -205 286 3 8 11 17
18 19 10 4 208 26 299 34 8 0 27 -11 41 -26z m247 -354 c25 -27 161 -291 161
-313 0 -8 -8 -20 -18 -25 -16 -8 -293 -91 -306 -91 -11 0 -146 295 -141 308 4
11 255 139 277 141 4 1 16 -9 27 -20z m234 -514 c15 -15 69 -223 85 -328 14
-87 14 -87 -175 -94 -118 -4 -166 -3 -177 6 -7 6 -17 37 -21 67 -3 30 -17 99
-30 151 -13 53 -21 102 -18 110 3 7 21 17 42 23 20 5 88 25 151 44 137 41 125
39 143 21z m95 -597 c24 -24 4 -329 -22 -356 -11 -12 -41 -9 -177 17 -103 19
-168 36 -175 45 -7 10 -8 34 -3 68 4 29 8 85 8 124 1 99 6 103 126 107 55 1
129 4 166 5 40 1 70 -3 77 -10z m-232 -507 c83 -15 157 -31 163 -36 17 -10 9
-46 -39 -199 -22 -68 -47 -129 -55 -136 -13 -11 -41 -1 -165 55 -83 37 -155
74 -161 81 -7 9 -1 41 21 116 43 139 47 148 67 148 10 0 86 -13 169 -29z
m-152 -478 c72 -33 134 -67 140 -75 7 -12 -10 -54 -68 -172 -42 -86 -84 -160
-94 -165 -13 -7 -52 10 -159 67 -79 43 -145 84 -148 93 -3 8 24 77 60 152 36
75 65 141 65 146 0 17 33 29 54 21 12 -5 79 -35 150 -67z m-265 -493 c71 -39
135 -77 141 -85 10 -12 -4 -41 -67 -147 -43 -73 -86 -134 -94 -136 -22 -4
-277 117 -283 135 -5 12 111 259 136 291 17 20 34 15 167 -58z"/>
</g>
</svg>
